<svg id="svg" version="1.1" xmlns="http://www.w3.org/2000/svg" xmlns:xlink="http://www.w3.org/1999/xlink" width="400" height="400" viewBox="0, 0, 400,400"><g id="svgg"><path id="path0" d="M125.433 65.618 C 124.791 65.810,122.350 66.146,120.009 66.364 C 113.688 66.954,107.235 71.076,104.600 76.207 C 104.160 77.064,103.410 78.360,102.934 79.088 C 102.458 79.815,101.940 81.173,101.784 82.105 C 101.627 83.037,101.032 84.695,100.461 85.789 C 98.235 90.055,98.263 107.864,100.503 112.445 C 101.082 113.630,101.673 115.371,101.816 116.314 C 101.958 117.257,102.485 118.517,102.987 119.114 C 103.488 119.711,104.027 120.963,104.184 121.895 C 104.340 122.827,104.901 124.227,105.430 125.006 C 105.958 125.785,106.684 127.002,107.042 127.711 C 107.400 128.420,108.003 129.360,108.380 129.800 C 108.758 130.240,109.382 131.455,109.766 132.500 C 110.151 133.545,110.608 134.400,110.781 134.400 C 110.954 134.400,112.017 135.795,113.143 137.500 C 116.380 142.401,116.931 143.188,118.100 144.588 C 119.669 146.467,119.577 146.654,115.353 150.200 C 110.345 154.404,110.403 154.347,107.718 157.645 C 103.543 162.774,102.316 164.815,101.734 167.600 C 101.125 170.516,100.396 171.362,98.127 171.787 C 97.302 171.942,96.118 172.431,95.496 172.874 C 94.874 173.317,93.248 173.936,91.883 174.250 C 90.517 174.564,88.931 175.162,88.358 175.579 C 87.785 175.997,86.594 176.532,85.710 176.770 C 84.827 177.008,83.640 177.568,83.073 178.014 C 82.505 178.461,81.267 179.062,80.320 179.349 C 79.374 179.637,77.900 180.352,77.044 180.937 C 76.188 181.521,75.288 182.003,75.044 182.007 C 74.800 182.011,73.808 182.551,72.840 183.207 C 71.872 183.863,70.734 184.400,70.311 184.400 C 69.649 184.400,65.339 188.150,63.185 190.600 C 59.828 194.419,57.602 197.218,57.017 198.359 C 56.633 199.106,55.898 200.138,55.385 200.651 C 54.804 201.232,54.346 202.306,54.172 203.493 C 54.018 204.542,53.577 205.850,53.192 206.400 C 52.400 207.529,51.610 210.101,51.593 211.600 C 51.587 212.150,51.230 213.050,50.800 213.600 C 49.668 215.047,49.821 215.445,51.001 214.122 C 51.935 213.075,52.038 213.047,52.545 213.700 C 52.844 214.085,53.272 214.400,53.497 214.400 C 54.427 214.400,54.752 218.993,53.900 220.092 C 53.154 221.055,50.496 222.060,50.255 221.470 C 50.149 221.211,50.015 221.630,49.957 222.400 C 49.899 223.170,49.748 222.270,49.623 220.400 L 49.395 217.000 49.087 221.400 C 48.918 223.820,48.316 227.763,47.748 230.163 C 46.347 236.096,46.454 245.494,47.957 248.363 C 48.465 249.333,49.137 250.991,49.451 252.048 C 50.812 256.630,57.876 259.519,62.237 257.277 C 64.970 255.871,67.044 254.137,67.737 252.675 C 68.107 251.896,69.332 250.154,70.460 248.805 C 71.587 247.455,73.285 245.147,74.233 243.676 C 75.180 242.204,76.280 240.558,76.678 240.018 C 77.075 239.478,78.265 237.772,79.323 236.228 C 82.416 231.714,89.579 226.565,93.800 225.823 C 94.680 225.668,96.029 225.175,96.798 224.726 C 97.781 224.153,99.384 223.809,102.198 223.565 C 106.942 223.154,108.199 222.909,109.800 222.088 C 110.554 221.700,113.302 221.287,117.200 220.974 C 121.616 220.619,124.009 220.235,125.515 219.638 C 126.929 219.078,128.528 218.800,130.341 218.800 C 133.905 218.800,137.490 218.121,139.080 217.145 C 139.887 216.650,141.193 216.330,142.612 216.280 L 144.863 216.200 145.451 217.912 C 146.225 220.169,145.981 230.817,145.044 235.600 C 144.678 237.470,144.230 242.510,144.048 246.800 C 143.752 253.768,143.605 254.899,142.667 257.400 C 142.089 258.940,141.612 261.010,141.607 262.000 C 141.601 263.106,141.275 264.328,140.763 265.169 C 140.304 265.921,139.673 267.760,139.362 269.254 C 139.050 270.749,138.346 272.633,137.798 273.442 C 137.249 274.250,136.800 275.221,136.800 275.600 C 136.800 275.979,136.368 276.925,135.840 277.703 C 134.705 279.376,134.489 279.995,134.005 282.970 C 133.804 284.207,133.373 285.484,133.048 285.809 C 130.839 288.018,130.712 311.946,132.881 317.200 C 133.735 319.270,133.801 320.099,133.994 331.230 L 134.200 343.061 135.243 344.630 C 139.160 350.527,140.375 351.000,151.600 351.000 C 163.029 351.000,162.465 351.151,166.728 346.947 C 168.638 345.065,170.723 343.252,171.362 342.920 C 172.002 342.587,172.891 341.974,173.338 341.557 C 173.785 341.141,174.342 340.800,174.577 340.800 C 174.811 340.800,175.889 340.170,176.972 339.400 C 178.055 338.630,179.147 338.000,179.399 338.000 C 179.651 338.000,180.565 337.465,181.429 336.811 C 182.293 336.157,183.201 335.617,183.446 335.611 C 183.691 335.605,184.360 335.232,184.931 334.783 C 185.502 334.334,186.847 333.705,187.920 333.387 C 188.993 333.068,191.045 331.918,192.480 330.832 C 193.915 329.746,195.746 328.583,196.548 328.247 C 198.380 327.482,202.596 323.806,211.891 314.869 C 215.900 311.013,219.330 307.756,219.512 307.629 C 219.694 307.503,220.252 306.725,220.754 305.900 C 221.255 305.075,221.831 304.400,222.033 304.400 C 222.235 304.400,222.400 304.192,222.400 303.938 C 222.400 303.684,223.615 301.660,225.100 299.440 C 226.585 297.221,228.021 294.897,228.292 294.276 C 228.562 293.655,229.147 292.685,229.590 292.121 C 230.034 291.557,230.594 290.366,230.834 289.475 C 231.074 288.584,231.704 287.286,232.235 286.590 C 232.766 285.894,233.200 285.052,233.200 284.718 C 233.200 284.385,233.677 283.412,234.260 282.556 C 234.843 281.700,235.545 280.150,235.821 279.110 C 236.097 278.071,236.597 276.946,236.933 276.610 C 237.269 276.274,237.842 274.972,238.207 273.717 C 238.572 272.461,239.292 270.602,239.808 269.585 C 240.331 268.552,240.859 266.601,241.002 265.168 C 241.144 263.755,241.699 261.581,242.236 260.335 C 242.773 259.090,243.377 256.769,243.576 255.178 C 243.776 253.586,244.122 252.172,244.345 252.034 C 245.008 251.624,245.598 249.674,246.037 246.442 C 246.264 244.769,246.793 242.680,247.213 241.799 C 248.102 239.933,248.781 235.708,248.792 231.971 C 248.796 230.525,249.046 228.545,249.346 227.571 C 250.652 223.332,250.879 221.327,251.084 212.200 C 251.326 201.450,250.790 192.475,249.764 190.110 C 249.074 188.517,248.294 176.920,248.833 176.266 C 248.985 176.082,250.344 176.468,251.854 177.125 C 253.365 177.781,255.770 178.448,257.200 178.607 C 258.630 178.766,260.610 179.299,261.600 179.791 C 262.590 180.284,264.188 180.808,265.151 180.956 C 266.114 181.104,267.659 181.670,268.586 182.213 C 269.512 182.756,270.502 183.200,270.785 183.200 C 271.068 183.200,272.695 183.830,274.400 184.600 C 276.105 185.370,277.906 186.000,278.402 186.000 C 278.897 186.000,280.225 186.519,281.351 187.152 C 282.478 187.786,284.084 188.426,284.920 188.574 C 285.756 188.722,287.244 189.271,288.227 189.794 C 289.210 190.317,291.046 190.865,292.307 191.013 C 293.719 191.178,295.157 191.658,296.049 192.260 C 297.136 192.994,298.353 193.327,300.915 193.591 C 302.794 193.785,304.869 194.222,305.527 194.562 C 309.018 196.368,329.429 196.614,332.687 194.890 C 333.615 194.399,335.319 193.795,336.474 193.547 C 337.629 193.299,339.210 192.682,339.987 192.175 C 340.764 191.668,342.120 191.132,343.000 190.982 C 351.616 189.520,358.843 176.256,353.996 170.800 C 353.508 170.250,352.832 169.386,352.494 168.880 C 351.551 167.464,349.926 166.823,346.311 166.441 C 344.490 166.248,342.108 165.701,341.017 165.224 C 339.926 164.747,337.856 164.205,336.417 164.019 C 334.978 163.833,332.953 163.312,331.918 162.862 C 330.883 162.412,328.926 161.918,327.570 161.765 C 326.214 161.611,324.361 161.093,323.452 160.612 C 322.544 160.131,320.913 159.516,319.828 159.245 C 318.744 158.974,317.383 158.415,316.804 158.003 C 316.225 157.591,315.222 157.130,314.576 156.981 C 313.332 156.692,311.584 155.632,308.021 153.006 C 305.964 151.489,304.761 150.403,299.000 144.864 C 297.680 143.595,295.181 141.396,293.447 139.978 C 291.712 138.560,289.544 136.770,288.628 136.000 C 287.712 135.230,286.272 134.060,285.428 133.400 C 284.584 132.740,282.784 131.300,281.429 130.200 C 280.073 129.100,277.834 127.390,276.453 126.400 C 275.072 125.410,273.190 124.017,272.271 123.304 C 271.352 122.591,270.400 122.006,270.155 122.004 C 269.910 122.002,269.058 121.482,268.262 120.849 C 267.466 120.216,266.032 119.501,265.076 119.261 C 264.119 119.020,262.881 118.464,262.323 118.025 C 261.766 117.587,260.499 117.046,259.508 116.824 C 258.517 116.602,256.828 115.980,255.753 115.442 C 254.679 114.905,252.525 114.289,250.966 114.074 C 249.408 113.860,247.427 113.324,246.565 112.884 C 243.513 111.327,235.077 111.409,231.949 113.026 C 231.259 113.383,229.538 113.839,228.124 114.039 C 226.710 114.239,225.001 114.718,224.325 115.102 C 223.649 115.486,222.735 116.008,222.295 116.263 C 221.577 116.678,221.024 116.245,216.924 112.063 C 214.410 109.498,212.642 107.876,212.995 108.458 C 213.349 109.041,214.894 110.634,216.430 111.999 C 219.051 114.328,221.308 117.743,220.100 117.553 C 219.935 117.527,219.665 117.549,219.500 117.603 C 219.335 117.656,219.065 117.738,218.900 117.785 C 218.735 117.831,218.261 118.017,217.846 118.198 C 217.391 118.396,216.835 118.345,216.446 118.070 C 216.091 117.818,215.215 117.348,214.500 117.026 C 213.785 116.704,213.200 116.162,213.200 115.822 C 213.200 114.909,210.537 112.121,209.390 111.833 C 208.846 111.697,208.400 111.414,208.400 111.206 C 208.400 110.998,207.890 110.237,207.266 109.514 C 205.413 107.369,204.194 104.400,205.165 104.400 C 205.365 104.400,205.480 103.950,205.420 103.400 C 205.359 102.850,205.364 102.400,205.429 102.400 C 206.119 102.400,207.937 103.503,210.040 105.198 L 212.600 107.261 210.000 104.834 C 208.570 103.500,207.260 102.406,207.089 102.404 C 206.918 102.402,206.198 101.860,205.489 101.201 C 204.780 100.541,203.210 99.081,202.000 97.957 C 199.822 95.932,194.741 91.830,192.277 90.107 C 191.575 89.616,190.820 89.068,190.600 88.889 C 188.596 87.264,185.311 85.038,184.276 84.604 C 183.574 84.310,181.814 83.181,180.364 82.096 C 178.914 81.011,177.204 79.940,176.564 79.717 C 175.924 79.493,174.510 78.746,173.422 78.055 C 172.334 77.365,171.263 76.800,171.043 76.800 C 170.823 76.800,170.003 76.374,169.222 75.852 C 168.440 75.331,165.730 74.225,163.200 73.395 C 158.693 71.915,157.261 71.344,155.152 70.183 C 154.576 69.866,152.687 69.409,150.954 69.168 C 149.220 68.927,146.889 68.298,145.774 67.770 C 144.148 67.001,142.673 66.734,138.351 66.425 C 135.384 66.213,132.459 65.851,131.852 65.620 C 130.549 65.124,127.087 65.123,125.433 65.618 M140.122 75.351 C 141.265 75.679,144.090 76.308,146.400 76.749 C 148.767 77.202,152.084 78.191,154.000 79.016 C 155.870 79.822,158.660 80.983,160.200 81.598 C 167.254 84.413,177.898 90.131,185.000 94.920 C 197.072 103.061,215.994 122.138,216.003 126.178 C 216.005 127.407,209.677 134.017,204.319 138.381 C 198.790 142.885,190.639 153.942,186.909 162.000 C 185.941 164.090,184.911 166.250,184.619 166.800 C 183.899 168.157,181.428 174.226,180.793 176.200 C 178.945 181.936,178.327 182.203,166.973 182.182 C 150.272 182.150,149.346 181.645,143.005 169.130 C 136.489 156.270,135.399 154.423,126.340 140.866 C 114.762 123.539,111.926 118.387,108.473 108.400 L 107.020 104.200 107.010 97.000 C 106.996 86.813,108.376 83.293,114.124 78.859 C 119.586 74.645,131.870 72.988,140.122 75.351 M246.339 121.618 C 254.499 122.942,268.349 131.282,283.237 143.836 C 285.087 145.396,288.760 148.310,291.400 150.312 C 294.040 152.314,297.550 155.003,299.200 156.286 C 309.108 163.995,321.372 169.742,332.316 171.806 C 349.546 175.056,349.931 183.399,332.998 186.626 C 321.839 188.752,309.705 187.659,297.000 183.383 C 293.480 182.198,289.610 180.961,288.400 180.633 C 287.190 180.305,284.130 179.298,281.600 178.394 C 279.070 177.491,275.560 176.246,273.800 175.627 C 272.040 175.009,269.160 173.921,267.400 173.210 C 264.426 172.009,259.487 170.196,251.200 167.265 C 249.330 166.603,246.720 165.945,245.400 165.802 C 244.080 165.660,241.059 165.286,238.686 164.971 C 233.117 164.234,223.885 164.240,217.800 164.987 C 215.160 165.310,210.390 165.749,207.200 165.961 C 200.886 166.380,197.751 167.252,191.752 170.257 C 186.871 172.701,185.349 170.080,188.954 165.437 C 190.195 163.840,190.900 162.413,191.365 160.564 C 192.245 157.060,196.172 150.081,199.361 146.351 C 205.182 139.544,207.015 137.585,209.830 135.160 C 211.607 133.630,214.037 131.788,215.230 131.067 C 227.685 123.544,230.569 122.108,234.200 121.622 C 237.733 121.150,243.442 121.148,246.339 121.618 M131.006 154.738 C 131.697 155.160,133.016 156.836,134.098 158.669 C 138.992 166.957,138.772 167.660,131.158 168.061 C 127.599 168.249,125.523 168.568,123.800 169.191 C 111.304 173.710,108.909 173.467,111.700 167.960 C 115.894 159.685,126.832 152.193,131.006 154.738 M235.200 168.068 C 238.411 169.494,240.064 174.990,240.779 186.619 C 241.022 190.569,241.423 195.150,241.671 196.800 C 242.399 201.652,242.316 213.216,241.524 217.200 C 241.153 219.070,240.743 222.310,240.613 224.400 C 240.279 229.789,238.141 243.210,237.014 247.000 C 236.491 248.760,235.946 250.830,235.803 251.600 C 235.661 252.370,235.115 254.350,234.591 256.000 C 234.066 257.650,233.439 260.139,233.195 261.532 C 232.525 265.372,228.831 274.431,224.240 283.495 C 215.056 301.627,198.852 318.188,181.800 326.871 C 173.090 331.306,165.605 336.127,161.456 339.974 C 157.813 343.352,156.112 343.850,149.649 343.435 C 142.336 342.965,142.000 342.492,142.000 332.662 C 142.000 324.095,141.482 318.795,140.104 313.249 C 139.146 309.393,139.046 308.260,139.024 301.000 L 139.000 293.000 140.535 288.000 C 141.379 285.250,143.027 280.840,144.197 278.200 C 146.519 272.961,148.923 265.627,149.600 261.713 C 149.837 260.345,150.295 258.365,150.618 257.313 C 150.942 256.261,151.394 253.060,151.623 250.200 C 151.852 247.340,152.310 243.020,152.642 240.600 C 153.656 233.195,153.835 220.229,153.005 214.288 C 152.019 207.237,151.959 207.323,160.800 203.244 C 164.522 201.527,169.399 198.487,172.918 195.691 C 174.591 194.362,176.643 192.881,177.479 192.401 C 178.793 191.647,179.375 190.766,181.761 185.919 C 187.335 174.598,195.365 170.080,214.600 167.443 C 217.962 166.982,233.840 167.464,235.200 168.068 M136.332 172.065 C 137.284 172.525,140.185 174.924,142.778 177.395 C 149.162 183.480,149.998 183.856,157.800 184.154 C 164.760 184.420,166.381 184.786,167.736 186.397 C 168.646 187.478,168.878 187.553,170.662 187.342 C 172.895 187.079,174.291 188.053,173.817 189.546 C 173.588 190.267,169.244 194.222,163.800 198.665 C 159.463 202.204,149.172 206.279,139.600 208.248 C 138.170 208.542,135.290 209.143,133.200 209.583 C 131.110 210.023,126.970 210.572,124.000 210.802 C 118.512 211.228,111.968 212.328,102.600 214.398 C 99.740 215.031,96.680 215.676,95.800 215.832 C 83.951 217.936,75.074 225.477,66.870 240.406 C 62.496 248.365,60.526 248.936,57.552 243.106 C 55.633 239.344,55.961 219.630,58.011 215.588 C 58.404 214.811,59.038 213.101,59.419 211.788 C 62.420 201.440,73.587 190.180,84.200 186.801 C 85.080 186.521,86.512 185.934,87.381 185.496 C 88.850 184.758,98.271 181.327,103.800 179.518 C 107.778 178.217,111.642 176.817,114.600 175.606 C 116.140 174.975,117.850 174.336,118.400 174.185 C 118.950 174.034,120.598 173.392,122.062 172.758 C 126.785 170.712,132.915 170.414,136.332 172.065 M147.194 225.700 C 147.189 227.203,147.078 227.630,146.800 227.200 C 146.288 226.408,146.288 223.600,146.800 223.600 C 147.020 223.600,147.197 224.545,147.194 225.700 M220.800 301.577 C 220.800 301.784,221.160 301.885,221.600 301.800 C 222.040 301.715,222.400 301.807,222.400 302.004 C 222.400 302.653,221.478 304.400,221.136 304.400 C 220.951 304.400,220.800 304.645,220.800 304.944 C 220.800 305.865,217.796 308.959,215.541 310.359 C 214.026 311.300,213.623 311.442,214.162 310.844 C 214.581 310.380,214.746 310.000,214.529 310.000 C 214.311 310.000,214.103 309.775,214.066 309.500 C 214.029 309.225,213.889 308.325,213.756 307.500 C 213.599 306.531,213.668 306.000,213.951 306.000 C 214.193 306.000,214.842 305.283,215.395 304.408 C 215.950 303.529,216.835 302.706,217.371 302.571 C 217.905 302.437,218.439 302.074,218.559 301.764 C 218.797 301.142,220.800 300.975,220.800 301.577 M199.700 323.695 C 200.548 323.788,200.546 323.758,199.793 325.213 C 199.460 325.858,198.695 326.638,198.093 326.945 C 196.754 327.629,193.926 328.237,194.766 327.660 C 195.106 327.426,195.310 326.669,195.276 325.765 C 195.198 323.704,195.807 323.071,197.578 323.374 C 198.360 323.508,199.315 323.653,199.700 323.695 " stroke="none" fill="#120e06" fill-rule="evenodd"></path><path id="path1" d="M124.748 77.413 C 118.078 78.558,116.991 78.996,114.154 81.679 C 104.410 90.895,108.063 110.107,123.989 133.400 C 135.592 150.370,138.203 154.670,144.477 167.141 C 150.802 179.713,150.811 179.718,165.800 179.814 C 177.645 179.890,177.509 179.959,179.611 172.800 C 183.799 158.533,193.996 143.711,208.600 130.661 C 213.378 126.391,213.469 126.254,212.675 124.587 C 210.598 120.232,192.542 102.967,184.155 97.316 C 177.036 92.520,162.551 84.816,158.000 83.406 C 157.450 83.236,156.100 82.643,155.000 82.088 C 152.397 80.775,146.093 78.968,141.468 78.209 C 139.451 77.878,136.916 77.335,135.836 77.004 C 133.266 76.213,131.322 76.285,124.748 77.413 M134.942 78.242 C 136.294 78.595,138.840 79.111,140.600 79.389 C 144.607 80.021,152.502 82.197,154.382 83.189 C 155.162 83.600,157.150 84.513,158.800 85.219 C 178.962 93.838,192.737 103.811,207.860 120.738 C 212.281 125.686,212.402 125.166,205.300 131.808 C 198.825 137.865,195.692 141.151,193.483 144.200 C 185.373 155.397,180.554 164.669,178.981 172.104 C 178.328 175.192,176.746 178.582,175.786 178.950 C 174.120 179.589,156.631 179.185,154.529 178.458 C 150.316 177.002,147.049 172.572,143.140 163.014 C 141.814 159.772,136.546 151.137,129.101 140.000 C 118.367 123.944,116.825 121.274,112.622 111.473 C 107.959 100.597,108.733 87.539,114.354 82.282 C 116.913 79.888,117.517 79.670,123.600 78.949 C 127.772 78.454,131.729 77.866,132.342 77.650 C 132.421 77.623,133.591 77.889,134.942 78.242 M234.800 123.583 C 231.681 124.172,226.497 126.858,217.644 132.472 C 209.658 137.536,196.005 152.946,196.001 156.900 C 196.000 157.505,196.070 158.000,196.156 158.000 C 196.619 158.000,204.064 155.951,205.600 155.400 C 210.533 153.633,223.590 153.743,232.400 155.626 C 234.490 156.073,238.148 156.608,240.528 156.816 C 242.909 157.023,245.907 157.465,247.189 157.797 C 248.472 158.130,251.365 158.771,253.617 159.223 C 255.870 159.674,258.581 160.484,259.643 161.022 C 260.705 161.560,261.894 162.002,262.287 162.004 C 262.679 162.006,263.927 162.440,265.061 162.967 C 266.195 163.495,268.175 164.144,269.461 164.409 C 270.747 164.674,272.295 165.145,272.900 165.456 C 273.505 165.766,275.485 166.571,277.300 167.243 C 284.405 169.876,289.795 172.052,292.606 173.422 C 293.709 173.960,294.838 174.400,295.115 174.400 C 295.969 174.400,304.819 177.977,306.719 179.091 C 308.812 180.317,309.945 180.373,322.400 179.860 C 338.252 179.208,341.641 175.627,328.357 173.566 C 320.534 172.352,307.711 166.318,299.327 159.904 C 290.574 153.208,286.353 149.894,282.261 146.504 C 275.651 141.027,266.133 133.904,263.400 132.388 C 262.080 131.657,260.523 130.730,259.940 130.330 C 258.732 129.501,253.148 126.662,249.000 124.769 C 245.961 123.382,238.962 122.798,234.800 123.583 M249.000 125.965 C 254.339 128.903,255.828 130.167,266.000 140.390 C 278.200 152.652,280.837 154.983,287.637 159.511 C 292.951 163.051,304.195 169.200,305.352 169.200 C 305.672 169.200,306.772 169.559,307.796 169.998 C 310.586 171.194,323.055 174.310,327.027 174.803 C 332.137 175.438,334.194 176.813,331.900 178.062 C 330.772 178.675,314.183 179.265,311.571 178.784 C 308.635 178.244,290.886 171.864,287.290 170.057 C 286.470 169.645,285.080 169.083,284.200 168.807 C 283.320 168.531,282.060 168.064,281.400 167.769 C 279.645 166.984,274.959 165.228,272.200 164.321 C 270.880 163.887,268.630 163.102,267.200 162.577 C 265.770 162.051,263.790 161.422,262.800 161.178 C 261.810 160.934,260.608 160.484,260.128 160.177 C 258.769 159.306,246.287 156.515,241.400 155.988 C 238.980 155.727,235.995 155.266,234.768 154.963 C 225.910 152.780,209.911 152.801,203.400 155.004 C 197.357 157.049,196.421 156.672,198.657 153.092 C 204.137 144.321,213.487 135.733,224.800 129.080 C 232.326 124.654,234.468 123.989,240.800 124.109 L 245.800 124.204 249.000 125.965 M125.176 158.126 C 123.979 158.856,122.081 160.025,120.958 160.725 C 118.720 162.119,114.400 167.197,114.400 168.433 C 114.400 169.532,116.632 169.448,119.512 168.240 C 122.722 166.894,128.196 165.275,130.795 164.904 C 133.554 164.510,133.708 163.965,131.992 160.664 C 129.769 156.387,128.690 155.985,125.176 158.126 M209.444 159.999 C 205.443 160.501,200.738 161.586,199.700 162.246 C 197.253 163.802,200.084 164.010,207.400 162.809 C 211.065 162.208,223.212 160.800,224.736 160.800 C 224.859 160.800,224.752 160.592,224.499 160.339 C 223.916 159.756,213.294 159.517,209.444 159.999 M123.075 161.914 C 123.834 162.397,124.362 164.167,123.961 164.883 C 123.309 166.049,116.000 168.708,116.000 167.780 C 116.000 165.501,121.519 160.925,123.075 161.914 M217.800 170.825 C 209.807 171.138,205.789 171.628,203.549 172.563 C 202.807 172.873,201.030 173.428,199.600 173.796 C 192.163 175.711,185.110 182.595,183.406 189.601 C 183.081 190.941,184.190 199.221,185.185 202.873 C 187.279 210.563,187.303 237.073,185.224 248.062 C 184.794 250.338,184.230 253.730,183.971 255.600 C 183.712 257.470,183.093 259.990,182.595 261.200 C 182.097 262.410,181.558 264.390,181.398 265.600 C 181.017 268.477,178.799 275.514,177.237 278.800 C 176.557 280.230,175.997 281.670,175.992 282.000 C 175.976 283.178,172.970 287.729,171.300 289.104 L 169.600 290.504 169.613 287.952 C 169.626 285.387,169.932 284.314,172.396 278.200 C 173.105 276.440,174.098 273.830,174.601 272.400 C 175.105 270.970,175.787 269.170,176.119 268.400 C 176.450 267.630,176.933 265.560,177.193 263.800 C 177.452 262.040,178.000 259.160,178.409 257.400 C 179.123 254.332,180.591 245.992,181.684 238.800 C 182.493 233.471,182.362 214.194,181.492 210.600 C 181.120 209.060,180.532 205.820,180.186 203.400 C 179.841 200.980,179.470 198.421,179.363 197.713 C 178.886 194.556,177.795 194.693,172.681 198.550 C 168.587 201.638,163.866 204.436,159.441 206.399 C 154.841 208.439,154.713 208.691,155.191 214.800 C 156.438 230.755,154.461 252.634,150.437 267.400 C 149.418 271.136,147.406 276.911,146.642 278.289 C 141.425 287.701,139.599 299.583,141.748 310.136 C 143.735 319.895,144.433 325.830,144.370 332.434 C 144.290 340.868,144.635 341.333,150.825 341.117 C 155.056 340.970,155.821 339.707,152.825 337.816 C 149.509 335.723,152.097 334.652,155.762 336.600 C 158.466 338.038,159.159 337.902,162.349 335.300 C 165.484 332.743,173.282 327.948,179.400 324.815 C 192.664 318.022,206.677 305.535,215.576 292.581 C 218.129 288.864,225.431 275.001,226.206 272.400 C 226.370 271.850,226.925 270.562,227.440 269.537 C 228.406 267.614,229.425 264.287,230.849 258.400 C 231.301 256.530,232.086 253.830,232.592 252.400 C 234.079 248.199,235.922 238.753,236.805 230.800 C 237.257 226.730,237.929 221.780,238.299 219.800 C 240.110 210.112,237.816 174.536,235.207 171.851 C 234.480 171.102,230.071 170.386,226.800 170.486 C 226.030 170.509,221.980 170.662,217.800 170.825 M125.400 173.966 C 124.300 174.372,120.520 175.817,117.000 177.176 C 113.480 178.535,108.620 180.337,106.200 181.180 C 103.780 182.023,99.190 183.620,96.000 184.729 C 79.308 190.528,72.536 194.845,65.632 204.087 C 62.652 208.076,59.214 221.153,59.078 229.015 C 58.971 235.247,59.306 235.434,62.258 230.792 C 65.519 225.663,67.529 223.252,70.627 220.753 C 75.341 216.952,80.930 213.260,83.252 212.413 C 84.494 211.960,85.724 211.333,85.984 211.019 C 86.514 210.380,93.571 207.977,97.686 207.034 C 99.163 206.695,101.413 206.068,102.686 205.639 C 104.967 204.871,114.739 203.053,120.200 202.380 C 121.740 202.190,125.490 202.027,128.533 202.018 C 133.303 202.002,134.461 201.866,136.933 201.031 C 138.510 200.498,141.210 199.779,142.934 199.433 C 147.197 198.577,156.306 194.519,160.091 191.789 C 165.004 188.246,164.695 187.350,158.361 186.766 C 148.711 185.877,147.197 185.207,141.200 179.177 C 135.157 173.100,131.237 171.807,125.400 173.966 M135.422 175.244 C 136.510 175.929,139.110 178.238,141.200 180.377 C 145.845 185.130,147.717 186.133,153.600 187.023 C 155.910 187.373,158.609 187.781,159.597 187.930 C 162.299 188.336,162.165 189.198,159.049 191.439 C 155.204 194.206,146.007 198.042,141.383 198.809 C 139.852 199.063,137.310 199.705,135.733 200.235 C 133.329 201.044,132.069 201.202,127.933 201.210 C 119.175 201.229,107.739 202.938,100.000 205.385 C 98.350 205.907,96.280 206.455,95.400 206.603 C 89.992 207.511,80.594 211.930,74.662 216.354 C 68.098 221.249,66.350 221.010,64.178 214.921 C 60.921 205.790,74.040 192.949,93.000 186.709 C 94.320 186.274,97.560 185.108,100.200 184.118 C 102.840 183.128,106.350 181.903,108.000 181.396 C 109.650 180.889,112.080 180.036,113.400 179.501 C 114.720 178.966,117.150 178.020,118.800 177.398 C 120.450 176.776,122.970 175.762,124.400 175.146 C 128.295 173.465,132.656 173.505,135.422 175.244 M178.341 199.735 C 178.552 200.871,178.908 203.420,179.133 205.400 C 179.357 207.380,179.912 210.710,180.365 212.800 C 181.525 218.145,181.557 230.955,180.427 236.921 C 180.002 239.164,179.451 242.890,179.204 245.200 C 178.956 247.510,178.243 251.740,177.620 254.600 C 176.997 257.460,176.364 260.700,176.215 261.800 C 175.854 264.450,173.811 271.147,172.362 274.432 C 171.723 275.879,171.200 277.280,171.200 277.545 C 171.200 277.810,170.778 278.876,170.263 279.913 C 169.748 280.951,168.740 283.780,168.024 286.200 C 167.308 288.620,166.255 292.040,165.684 293.800 C 164.860 296.336,164.627 297.912,164.560 301.400 C 164.508 304.120,164.233 306.550,163.838 307.764 C 163.119 309.977,162.989 315.683,163.576 319.269 C 164.854 327.067,160.538 335.235,155.774 334.035 C 150.303 332.657,146.173 335.049,148.975 337.974 C 150.102 339.150,149.841 339.600,148.029 339.600 C 146.237 339.600,145.923 338.438,145.793 331.322 C 145.706 326.570,145.433 323.428,144.860 320.600 C 144.413 318.400,143.934 315.610,143.794 314.400 C 143.654 313.190,143.182 310.670,142.745 308.800 C 141.748 304.531,141.387 299.206,141.918 296.600 C 143.218 290.226,145.924 281.744,147.392 279.447 C 148.574 277.599,152.276 266.395,153.224 261.800 C 155.884 248.906,157.190 231.015,156.461 217.455 C 155.995 208.782,155.614 209.609,161.349 206.834 C 164.017 205.544,167.890 203.343,169.955 201.944 C 172.020 200.545,174.422 198.917,175.292 198.327 C 177.326 196.949,177.871 197.200,178.341 199.735 " stroke="none" fill="#ca9c27" fill-rule="evenodd"></path><path id="path2" d="M116.200 81.768 C 113.388 83.456,111.938 85.980,111.030 90.766 C 109.073 101.085,111.840 110.811,121.227 126.600 C 121.983 127.871,126.744 135.043,130.249 140.188 C 138.069 151.670,139.352 153.846,145.592 166.200 L 150.239 175.400 152.978 176.800 L 155.717 178.200 165.734 178.200 L 175.751 178.200 176.776 176.212 C 178.605 172.660,178.468 168.896,176.279 162.582 C 168.528 140.222,158.893 123.865,143.731 107.325 C 141.878 105.304,138.918 101.884,137.155 99.725 C 122.611 81.924,119.863 79.569,116.200 81.768 M236.200 125.493 C 233.822 126.087,228.986 128.331,225.982 130.235 C 224.102 131.426,222.429 132.400,222.264 132.400 C 220.426 132.400,209.384 141.951,204.787 147.518 C 200.106 153.185,199.826 154.033,202.885 153.281 C 211.559 151.146,223.333 151.383,239.000 154.008 C 242.740 154.635,246.880 155.269,248.200 155.418 C 249.520 155.567,251.590 156.015,252.800 156.414 C 254.010 156.812,256.201 157.417,257.669 157.756 C 259.137 158.096,260.937 158.739,261.669 159.186 C 262.401 159.632,263.316 159.998,263.703 159.999 C 264.560 160.000,274.937 163.422,276.139 164.099 C 276.613 164.365,278.350 165.058,280.000 165.637 C 283.138 166.739,286.552 168.045,290.600 169.694 C 291.920 170.232,294.350 171.166,296.000 171.770 C 297.650 172.374,299.900 173.239,301.000 173.692 C 302.902 174.476,309.858 176.436,313.493 177.212 C 314.424 177.411,316.224 177.438,317.493 177.274 L 319.800 176.975 317.200 176.439 C 305.295 173.985,288.256 165.482,278.142 156.947 C 275.844 155.007,261.376 140.646,254.600 133.577 C 247.278 125.939,242.613 123.890,236.200 125.493 M126.266 175.995 C 124.576 176.924,120.704 178.440,117.000 179.624 C 115.680 180.046,113.714 180.844,112.632 181.396 C 111.550 181.948,110.321 182.400,109.900 182.400 C 109.480 182.400,107.982 182.853,106.571 183.406 C 105.160 183.960,102.789 184.892,101.303 185.479 C 99.816 186.065,97.250 186.943,95.600 187.429 C 93.950 187.916,91.070 188.982,89.200 189.799 C 87.330 190.615,84.910 191.637,83.822 192.070 C 76.589 194.945,65.600 205.518,65.600 209.602 C 65.600 211.482,69.038 217.200,70.169 217.200 C 70.459 217.200,72.655 215.763,75.048 214.008 C 77.442 212.252,79.607 210.812,79.859 210.808 C 80.112 210.803,81.372 210.246,82.659 209.568 C 86.045 207.786,91.617 205.704,93.862 205.383 C 94.928 205.231,97.055 204.674,98.588 204.147 C 100.121 203.619,102.551 203.001,103.988 202.774 C 105.425 202.547,107.759 202.005,109.176 201.570 C 112.234 200.631,118.975 200.015,126.291 200.006 C 130.857 200.001,131.926 199.871,134.091 199.060 C 135.471 198.543,137.955 197.920,139.611 197.675 C 148.175 196.412,162.034 189.243,155.982 189.206 C 150.665 189.174,144.788 186.352,140.367 181.709 C 134.343 175.382,130.337 173.759,126.266 175.995 " stroke="none" fill="#eed16d" fill-rule="evenodd"></path><path id="path3" d="M126.400 75.819 C 116.982 77.118,112.044 80.215,109.567 86.378 C 104.876 98.048,109.058 113.240,122.401 133.000 C 136.092 153.276,137.533 155.651,143.805 168.286 C 149.078 178.908,150.220 179.905,158.090 180.741 C 162.973 181.260,176.279 180.999,177.038 180.369 C 178.103 179.484,179.548 176.663,180.614 173.382 C 185.704 157.719,194.315 145.388,210.335 130.820 C 216.415 125.292,216.347 125.131,201.951 110.981 C 191.623 100.828,187.791 97.818,177.056 91.426 C 166.799 85.318,151.295 78.682,144.764 77.605 C 143.134 77.336,140.000 76.685,137.800 76.159 C 133.363 75.097,131.941 75.054,126.400 75.819 M135.836 77.004 C 136.916 77.335,139.451 77.878,141.468 78.209 C 146.093 78.968,152.397 80.775,155.000 82.088 C 156.100 82.643,157.450 83.236,158.000 83.406 C 162.551 84.816,177.036 92.520,184.155 97.316 C 192.542 102.967,210.598 120.232,212.675 124.587 C 213.469 126.254,213.378 126.391,208.600 130.661 C 193.996 143.711,183.799 158.533,179.611 172.800 C 177.509 179.959,177.645 179.890,165.800 179.814 C 150.811 179.718,150.802 179.713,144.477 167.141 C 138.203 154.670,135.592 150.370,123.989 133.400 C 108.063 110.107,104.410 90.895,114.154 81.679 C 118.148 77.902,130.261 75.290,135.836 77.004 M207.001 103.598 C 206.858 103.830,206.889 103.970,207.070 103.910 C 207.252 103.849,207.427 103.952,207.461 104.137 C 207.495 104.323,208.035 105.026,208.661 105.699 C 209.287 106.373,209.575 106.795,209.300 106.638 C 208.801 106.353,208.622 106.832,208.793 108.000 C 208.913 108.825,209.629 109.206,210.700 109.014 C 211.195 108.926,211.600 109.032,211.600 109.252 C 211.600 109.471,211.932 109.594,212.339 109.525 C 212.745 109.456,213.414 109.670,213.825 110.000 C 214.236 110.330,213.873 109.754,213.017 108.719 C 212.162 107.684,211.326 106.922,211.159 107.025 C 210.992 107.129,210.725 107.002,210.566 106.745 C 210.385 106.452,210.450 106.384,210.738 106.562 C 211.815 107.228,211.059 106.356,209.231 104.826 C 208.047 103.834,207.158 103.345,207.001 103.598 M215.052 111.200 C 215.271 111.530,215.439 112.160,215.425 112.600 C 215.411 113.040,215.760 113.709,216.200 114.087 C 216.640 114.464,216.811 114.779,216.580 114.787 C 216.349 114.794,215.916 114.575,215.618 114.300 C 215.321 114.025,215.420 114.282,215.838 114.872 C 216.575 115.909,218.000 116.656,218.000 116.005 C 218.000 115.829,218.290 115.574,218.645 115.438 C 219.134 115.250,219.225 115.360,219.021 115.895 C 218.804 116.466,218.850 116.504,219.264 116.092 C 219.679 115.680,219.291 115.112,217.215 113.092 C 215.806 111.721,214.832 110.870,215.052 111.200 M233.400 122.752 C 231.537 123.233,227.210 125.232,225.000 126.633 C 223.900 127.331,221.540 128.753,219.755 129.794 C 207.647 136.857,192.829 154.167,193.470 160.498 C 193.628 162.052,193.467 162.424,191.621 164.772 C 188.729 168.453,188.964 169.602,192.313 168.159 C 205.146 162.630,237.952 161.057,250.600 165.365 C 253.136 166.229,265.881 170.989,269.400 172.387 C 271.160 173.086,273.680 174.020,275.000 174.464 C 276.320 174.907,278.480 175.687,279.800 176.197 C 282.897 177.394,288.255 179.130,291.581 180.015 C 293.022 180.398,296.559 181.536,299.442 182.543 C 306.107 184.871,318.508 186.629,323.883 186.009 C 332.965 184.961,334.734 184.667,336.200 183.967 C 339.506 182.386,341.281 181.297,340.918 181.073 C 340.711 180.945,340.016 181.137,339.371 181.498 C 337.593 182.495,324.698 182.769,325.679 181.788 C 325.785 181.682,327.999 181.316,330.599 180.975 C 333.199 180.634,335.793 180.098,336.363 179.784 C 338.234 178.755,340.543 177.008,340.572 176.600 C 340.631 175.768,336.004 173.956,330.861 172.798 C 318.249 169.957,307.750 164.862,297.320 156.522 C 294.944 154.622,291.380 151.869,289.400 150.404 C 287.420 148.940,284.000 146.215,281.800 144.351 C 276.224 139.625,268.292 133.628,265.200 131.802 C 263.770 130.957,261.958 129.865,261.173 129.376 C 259.253 128.177,255.490 126.293,251.059 124.309 L 247.400 122.672 241.000 122.557 C 237.480 122.494,234.060 122.581,233.400 122.752 M249.000 124.769 C 253.148 126.662,258.732 129.501,259.940 130.330 C 260.523 130.730,262.080 131.657,263.400 132.388 C 266.133 133.904,275.651 141.027,282.261 146.504 C 286.353 149.894,290.574 153.208,299.327 159.904 C 307.711 166.318,320.534 172.352,328.357 173.566 C 341.641 175.627,338.252 179.208,322.400 179.860 C 309.945 180.373,308.812 180.317,306.719 179.091 C 304.819 177.977,295.969 174.400,295.115 174.400 C 294.838 174.400,293.709 173.960,292.606 173.422 C 289.795 172.052,284.405 169.876,277.300 167.243 C 275.485 166.571,273.505 165.766,272.900 165.456 C 272.295 165.145,270.747 164.674,269.461 164.409 C 268.175 164.144,266.195 163.495,265.061 162.967 C 263.927 162.440,262.679 162.006,262.287 162.004 C 261.894 162.002,260.705 161.560,259.643 161.022 C 258.581 160.484,255.870 159.674,253.617 159.223 C 251.365 158.771,248.472 158.130,247.189 157.797 C 245.907 157.465,242.909 157.023,240.528 156.816 C 238.148 156.608,234.490 156.073,232.400 155.626 C 223.590 153.743,210.533 153.633,205.600 155.400 C 204.064 155.951,196.619 158.000,196.156 158.000 C 193.478 158.000,201.168 147.156,209.504 139.179 C 214.979 133.939,221.977 129.192,229.600 125.548 C 235.556 122.701,243.748 122.372,249.000 124.769 M126.480 155.601 C 120.693 158.041,111.659 167.605,112.666 170.227 C 113.044 171.214,116.343 170.770,120.248 169.206 C 124.349 167.564,127.610 166.813,130.674 166.806 C 135.931 166.793,136.360 165.977,133.759 160.940 C 131.071 155.736,129.278 154.422,126.480 155.601 M225.795 156.076 C 229.841 157.406,226.430 158.071,216.332 157.919 C 208.350 157.798,207.390 157.638,208.428 156.601 C 209.801 155.228,222.086 154.856,225.795 156.076 M129.912 157.500 C 131.025 158.474,133.303 162.972,133.132 163.859 C 133.025 164.412,132.455 164.667,130.795 164.904 C 128.196 165.275,122.722 166.894,119.512 168.240 C 116.632 169.448,114.400 169.532,114.400 168.433 C 114.400 167.197,118.720 162.119,120.958 160.725 C 127.953 156.366,128.422 156.197,129.912 157.500 M244.242 158.992 C 245.857 159.666,245.719 160.400,243.977 160.400 C 242.147 160.400,235.444 159.179,235.020 158.768 C 234.356 158.125,242.649 158.326,244.242 158.992 M224.499 160.339 C 224.752 160.592,224.859 160.800,224.736 160.800 C 223.212 160.800,211.065 162.208,207.400 162.809 C 200.084 164.010,197.253 163.802,199.700 162.246 C 202.921 160.197,222.826 158.666,224.499 160.339 M255.500 161.189 C 257.934 162.294,257.646 162.800,254.580 162.800 C 251.287 162.800,248.841 161.693,249.867 160.667 C 250.410 160.123,253.855 160.442,255.500 161.189 M270.400 166.800 C 270.400 167.301,269.976 167.301,269.200 166.800 C 268.715 166.486,268.772 166.411,269.500 166.406 C 269.995 166.403,270.400 166.580,270.400 166.800 M276.613 168.580 C 278.358 169.309,278.401 170.002,276.700 169.994 C 275.229 169.987,273.545 169.247,273.298 168.500 C 273.071 167.812,274.881 167.856,276.613 168.580 M216.400 169.046 C 204.893 170.014,196.297 172.535,190.546 176.628 C 184.758 180.748,180.147 190.141,181.724 194.600 C 182.036 195.480,182.422 197.640,182.583 199.400 C 182.743 201.160,183.263 204.130,183.738 206.000 C 184.796 210.173,185.059 239.470,184.059 241.800 C 183.001 244.265,182.784 241.954,183.399 234.742 C 184.326 223.858,183.826 213.387,182.022 205.867 C 181.050 201.815,180.407 197.865,180.403 195.920 C 180.397 192.805,178.296 193.156,173.047 197.149 C 169.222 200.059,162.106 204.475,160.400 204.998 C 154.303 206.867,153.783 207.800,154.412 215.755 C 155.224 226.023,154.616 237.481,152.382 254.000 C 151.505 260.489,147.738 274.540,146.217 277.000 C 145.584 278.023,142.400 285.480,142.400 285.939 C 142.400 286.130,141.841 288.237,141.157 290.622 C 139.707 295.681,139.599 306.571,140.953 311.200 C 142.362 316.017,143.320 324.347,143.361 332.132 L 143.400 339.664 144.649 340.781 C 145.761 341.775,146.313 341.928,149.685 342.181 C 155.418 342.611,156.629 342.118,162.915 336.800 C 165.687 334.455,175.576 328.380,181.200 325.568 C 204.582 313.875,227.294 284.200,232.404 258.666 C 232.661 257.382,233.278 255.132,233.775 253.666 C 234.272 252.200,234.809 250.280,234.967 249.400 C 235.126 248.520,235.596 246.630,236.011 245.200 C 237.247 240.944,240.805 213.390,240.794 208.160 C 240.788 205.019,239.336 183.827,238.977 181.640 C 237.405 172.052,236.897 170.575,234.868 169.696 C 233.423 169.070,221.219 168.640,216.400 169.046 M231.340 170.772 C 235.760 171.236,235.726 171.182,236.967 179.619 C 239.056 193.816,239.673 212.448,238.299 219.800 C 237.929 221.780,237.257 226.730,236.805 230.800 C 235.922 238.753,234.079 248.199,232.592 252.400 C 232.086 253.830,231.301 256.530,230.849 258.400 C 229.425 264.287,228.406 267.614,227.440 269.537 C 226.925 270.562,226.370 271.850,226.206 272.400 C 225.431 275.001,218.129 288.864,215.576 292.581 C 206.677 305.535,192.664 318.022,179.400 324.815 C 173.282 327.948,165.484 332.743,162.349 335.300 C 159.159 337.902,158.466 338.038,155.762 336.600 C 152.097 334.652,149.509 335.723,152.825 337.816 C 155.821 339.707,155.056 340.970,150.825 341.117 C 144.635 341.333,144.290 340.868,144.370 332.434 C 144.433 325.830,143.735 319.895,141.748 310.136 C 139.599 299.583,141.425 287.701,146.642 278.289 C 147.406 276.911,149.418 271.136,150.437 267.400 C 154.461 252.634,156.438 230.755,155.191 214.800 C 154.713 208.691,154.841 208.439,159.441 206.399 C 163.866 204.436,168.587 201.638,172.681 198.550 C 177.795 194.693,178.886 194.556,179.363 197.713 C 179.470 198.421,179.841 200.980,180.186 203.400 C 180.532 205.820,181.120 209.060,181.492 210.600 C 182.362 214.194,182.493 233.471,181.684 238.800 C 180.591 245.992,179.123 254.332,178.409 257.400 C 178.000 259.160,177.452 262.040,177.193 263.800 C 176.933 265.560,176.450 267.630,176.119 268.400 C 175.787 269.170,175.105 270.970,174.601 272.400 C 174.098 273.830,173.105 276.440,172.396 278.200 C 169.932 284.314,169.626 285.387,169.613 287.952 L 169.600 290.504 171.300 289.104 C 172.970 287.729,175.976 283.178,175.992 282.000 C 175.997 281.670,176.557 280.230,177.237 278.800 C 178.799 275.514,181.017 268.477,181.398 265.600 C 181.558 264.390,182.097 262.410,182.595 261.200 C 183.093 259.990,183.712 257.470,183.971 255.600 C 184.230 253.730,184.794 250.338,185.224 248.062 C 187.303 237.073,187.279 210.563,185.185 202.873 C 184.190 199.221,183.081 190.941,183.406 189.601 C 185.110 182.595,192.163 175.711,199.600 173.796 C 201.030 173.428,202.807 172.873,203.549 172.563 C 206.272 171.426,211.655 170.945,226.800 170.486 C 227.570 170.462,229.613 170.591,231.340 170.772 M282.981 171.264 C 284.188 171.814,284.315 172.400,283.226 172.400 C 282.097 172.400,280.400 171.685,280.400 171.210 C 280.400 170.662,281.721 170.690,282.981 171.264 M127.200 172.366 C 125.990 172.536,124.415 172.977,123.700 173.347 C 122.985 173.718,121.005 174.525,119.300 175.142 C 117.595 175.758,114.220 176.999,111.800 177.899 C 109.380 178.799,106.320 179.895,105.000 180.333 C 71.468 191.473,63.786 197.974,58.600 219.600 C 56.828 226.988,57.387 239.383,59.639 242.657 C 61.487 245.343,63.145 244.253,66.417 238.200 C 75.355 221.662,83.748 216.068,105.400 212.214 C 107.160 211.900,110.310 211.287,112.400 210.851 C 114.490 210.414,118.540 209.861,121.400 209.620 C 127.587 209.100,136.775 207.512,140.400 206.337 C 141.830 205.873,144.295 205.166,145.877 204.765 C 148.769 204.033,152.526 202.366,152.995 201.608 C 153.383 200.980,151.075 201.116,148.918 201.848 C 144.361 203.395,136.389 204.508,128.600 204.685 C 118.153 204.921,119.103 204.147,130.095 203.468 C 134.622 203.188,138.568 202.772,138.863 202.543 C 139.876 201.758,142.765 200.821,145.482 200.397 C 146.977 200.164,148.690 199.617,149.289 199.182 C 149.888 198.748,151.999 197.689,153.980 196.830 C 161.447 193.591,167.026 188.626,165.224 186.824 C 164.431 186.031,163.893 185.943,155.420 185.222 C 149.081 184.682,147.673 183.960,142.065 178.376 C 136.121 172.457,133.654 171.460,127.200 172.366 M135.174 174.077 C 136.265 174.600,138.691 176.654,141.200 179.177 C 147.197 185.207,148.711 185.877,158.361 186.766 C 164.695 187.350,165.004 188.246,160.091 191.789 C 156.306 194.519,147.197 198.577,142.934 199.433 C 141.210 199.779,138.510 200.498,136.933 201.031 C 134.461 201.866,133.303 202.002,128.533 202.018 C 125.490 202.027,121.740 202.190,120.200 202.380 C 114.739 203.053,104.967 204.871,102.686 205.639 C 101.413 206.068,99.163 206.695,97.686 207.034 C 93.571 207.977,86.514 210.380,85.984 211.019 C 85.724 211.333,84.494 211.960,83.252 212.413 C 80.930 213.260,75.341 216.952,70.627 220.753 C 67.529 223.252,65.519 225.663,62.258 230.792 C 59.306 235.434,58.971 235.247,59.078 229.015 C 59.214 221.153,62.652 208.076,65.632 204.087 C 72.536 194.845,79.308 190.528,96.000 184.729 C 99.190 183.620,103.780 182.023,106.200 181.180 C 108.620 180.337,113.480 178.535,117.000 177.176 C 127.370 173.173,127.186 173.227,130.374 173.213 C 132.631 173.203,133.787 173.411,135.174 174.077 M289.144 173.811 C 289.256 173.922,289.163 174.197,288.938 174.422 C 288.432 174.928,286.400 174.238,286.400 173.560 C 286.400 173.119,288.659 173.326,289.144 173.811 M113.877 205.743 C 114.355 206.222,113.129 207.123,111.411 207.556 C 109.234 208.104,104.400 208.141,104.400 207.610 C 104.400 206.146,112.654 204.520,113.877 205.743 M101.200 208.800 C 100.870 209.013,100.150 209.173,99.600 209.154 L 98.600 209.120 99.600 208.800 C 101.142 208.306,101.964 208.306,101.200 208.800 M50.581 215.236 C 50.230 215.916,50.039 216.726,50.159 217.036 C 50.278 217.346,50.201 217.600,49.987 217.600 C 49.774 217.600,49.606 218.005,49.613 218.500 C 49.625 219.350,49.656 219.359,50.176 218.673 C 50.479 218.274,50.834 217.959,50.964 217.973 C 51.935 218.083,52.410 217.939,52.200 217.600 C 52.064 217.380,52.143 217.200,52.376 217.200 C 53.104 217.200,52.841 216.071,51.900 215.157 C 51.405 214.676,51.253 214.427,51.562 214.603 C 51.938 214.818,52.029 214.771,51.838 214.462 C 51.421 213.787,51.288 213.870,50.581 215.236 M75.950 220.500 C 75.452 221.215,74.347 222.410,73.494 223.155 C 72.641 223.901,71.191 225.490,70.272 226.688 C 66.123 232.090,65.200 233.389,65.200 233.821 C 65.200 234.445,63.356 236.400,62.766 236.400 C 60.249 236.400,66.544 226.443,71.808 222.100 C 75.678 218.907,77.566 218.178,75.950 220.500 M182.557 249.033 C 183.250 250.839,182.404 256.420,181.017 259.184 C 180.516 260.183,179.982 261.900,179.830 263.000 C 179.448 265.770,179.209 266.453,178.726 266.155 C 178.222 265.843,178.584 262.713,179.388 260.434 C 179.699 259.553,180.126 256.980,180.337 254.716 C 180.809 249.655,181.811 247.089,182.557 249.033 M177.600 272.123 C 177.600 272.851,176.971 274.696,176.201 276.223 C 175.432 277.750,174.802 279.295,174.801 279.656 C 174.801 280.016,174.446 280.736,174.013 281.256 L 173.227 282.200 173.213 280.760 C 173.206 279.967,173.619 278.527,174.131 277.560 C 174.643 276.592,175.286 274.902,175.561 273.805 C 176.335 270.706,177.600 269.663,177.600 272.123 M220.136 305.423 C 220.004 305.766,219.663 305.956,219.378 305.847 C 218.751 305.606,217.833 306.606,218.174 307.158 C 218.308 307.374,218.188 307.697,217.908 307.875 C 217.629 308.054,217.046 308.650,216.612 309.200 C 216.179 309.750,216.778 309.300,217.942 308.200 C 219.925 306.328,221.120 304.800,220.602 304.800 C 220.477 304.800,220.267 305.080,220.136 305.423 M199.433 325.100 C 199.268 325.265,198.923 325.408,198.667 325.418 C 198.410 325.428,198.245 325.653,198.300 325.918 C 198.392 326.362,197.880 326.578,197.070 326.437 C 196.889 326.406,196.845 326.549,196.973 326.756 C 197.100 326.963,196.979 327.223,196.702 327.334 C 196.425 327.446,196.394 327.551,196.633 327.568 C 196.872 327.586,197.772 326.977,198.633 326.217 C 199.495 325.456,200.095 324.826,199.967 324.817 C 199.838 324.807,199.598 324.935,199.433 325.100 " stroke="none" fill="#866e24" fill-rule="evenodd"></path><path id="path4" d="M175.292 198.327 C 174.422 198.917,172.020 200.545,169.955 201.944 C 167.890 203.343,164.017 205.544,161.349 206.834 C 155.614 209.609,155.995 208.782,156.461 217.455 C 157.662 239.791,153.187 270.381,147.392 279.447 C 145.924 281.744,143.218 290.226,141.918 296.600 C 141.387 299.206,141.748 304.531,142.745 308.800 C 143.182 310.670,143.654 313.190,143.794 314.400 C 143.934 315.610,144.413 318.400,144.860 320.600 C 145.433 323.428,145.706 326.570,145.793 331.322 C 145.923 338.438,146.237 339.600,148.029 339.600 C 149.841 339.600,150.102 339.150,148.975 337.974 C 146.173 335.049,150.303 332.657,155.774 334.035 C 160.538 335.235,164.854 327.067,163.576 319.269 C 162.989 315.683,163.119 309.977,163.838 307.764 C 164.233 306.550,164.508 304.120,164.560 301.400 C 164.627 297.912,164.860 296.336,165.684 293.800 C 166.255 292.040,167.308 288.620,168.024 286.200 C 168.740 283.780,169.748 280.951,170.263 279.913 C 170.778 278.876,171.200 277.810,171.200 277.545 C 171.200 277.280,171.723 275.879,172.362 274.432 C 173.811 271.147,175.854 264.450,176.215 261.800 C 176.364 260.700,176.997 257.460,177.620 254.600 C 178.243 251.740,178.956 247.510,179.204 245.200 C 179.451 242.890,180.002 239.164,180.427 236.921 C 181.557 230.955,181.525 218.145,180.365 212.800 C 179.912 210.710,179.357 207.380,179.133 205.400 C 178.196 197.137,177.887 196.568,175.292 198.327 " stroke="none" fill="#fbeb04" fill-rule="evenodd"></path><path id="path5" d="M130.400 78.028 C 129.410 78.208,126.350 78.622,123.600 78.949 C 117.517 79.670,116.913 79.888,114.354 82.282 C 108.733 87.539,107.959 100.597,112.622 111.473 C 116.825 121.274,118.367 123.944,129.101 140.000 C 136.546 151.137,141.814 159.772,143.140 163.014 C 147.049 172.572,150.316 177.002,154.529 178.458 C 156.631 179.185,174.120 179.589,175.786 178.950 C 176.746 178.582,178.328 175.192,178.981 172.104 C 180.554 164.669,185.373 155.397,193.483 144.200 C 195.692 141.151,198.825 137.865,205.300 131.808 C 212.402 125.166,212.281 125.686,207.860 120.738 C 192.737 103.811,178.962 93.838,158.800 85.219 C 157.150 84.513,155.162 83.600,154.382 83.189 C 152.502 82.197,144.607 80.021,140.600 79.389 C 138.840 79.111,136.294 78.595,134.942 78.242 C 133.591 77.889,132.421 77.623,132.342 77.650 C 132.264 77.678,131.390 77.848,130.400 78.028 M121.242 82.165 C 124.353 84.580,128.709 89.387,137.155 99.725 C 138.918 101.884,141.878 105.304,143.731 107.325 C 158.893 123.865,168.528 140.222,176.279 162.582 C 178.468 168.896,178.605 172.660,176.776 176.212 L 175.751 178.200 165.734 178.200 L 155.717 178.200 152.978 176.800 L 150.239 175.400 145.592 166.200 C 139.352 153.846,138.069 151.670,130.249 140.188 C 126.744 135.043,121.983 127.871,121.227 126.600 C 113.631 113.823,110.400 104.922,110.400 96.774 C 110.400 85.617,115.990 78.086,121.242 82.165 M234.200 124.556 C 230.093 125.947,224.695 128.873,217.649 133.530 C 210.333 138.364,197.600 152.404,197.600 155.637 C 197.600 156.667,198.906 156.525,203.400 155.004 C 209.911 152.801,225.910 152.780,234.768 154.963 C 235.995 155.266,238.980 155.727,241.400 155.988 C 246.287 156.515,258.769 159.306,260.128 160.177 C 260.608 160.484,261.810 160.934,262.800 161.178 C 263.790 161.422,265.770 162.051,267.200 162.577 C 268.630 163.102,270.880 163.887,272.200 164.321 C 274.959 165.228,279.645 166.984,281.400 167.769 C 282.060 168.064,283.320 168.531,284.200 168.807 C 285.080 169.083,286.470 169.645,287.290 170.057 C 290.886 171.864,308.635 178.244,311.571 178.784 C 314.183 179.265,330.772 178.675,331.900 178.062 C 334.194 176.813,332.137 175.438,327.027 174.803 C 323.055 174.310,310.586 171.194,307.796 169.998 C 306.772 169.559,305.672 169.200,305.352 169.200 C 304.195 169.200,292.951 163.051,287.637 159.511 C 280.837 154.983,278.200 152.652,266.000 140.390 C 255.828 130.167,254.339 128.903,249.000 125.965 L 245.800 124.204 240.800 124.109 C 237.418 124.045,235.282 124.190,234.200 124.556 M244.285 125.567 C 246.684 126.255,250.194 128.981,254.600 133.577 C 261.376 140.646,275.844 155.007,278.142 156.947 C 288.256 165.482,305.295 173.985,317.200 176.439 L 319.800 176.975 317.493 177.274 C 316.224 177.438,314.424 177.411,313.493 177.212 C 309.858 176.436,302.902 174.476,301.000 173.692 C 299.900 173.239,297.650 172.374,296.000 171.770 C 294.350 171.166,291.920 170.232,290.600 169.694 C 286.552 168.045,283.138 166.739,280.000 165.637 C 278.350 165.058,276.613 164.365,276.139 164.099 C 274.937 163.422,264.560 160.000,263.703 159.999 C 263.316 159.998,262.401 159.632,261.669 159.186 C 260.937 158.739,259.137 158.096,257.669 157.756 C 256.201 157.417,254.010 156.812,252.800 156.414 C 251.590 156.015,249.520 155.567,248.200 155.418 C 246.880 155.269,242.740 154.635,239.000 154.008 C 223.333 151.383,211.559 151.146,202.885 153.281 C 199.826 154.033,200.106 153.185,204.787 147.518 C 209.384 141.951,220.426 132.400,222.264 132.400 C 222.429 132.400,224.102 131.426,225.982 130.235 C 232.810 125.909,239.515 124.199,244.285 125.567 M121.200 161.880 C 119.769 162.395,116.000 166.673,116.000 167.780 C 116.000 168.708,123.309 166.049,123.961 164.883 C 124.362 164.167,123.834 162.397,123.075 161.914 C 122.539 161.574,122.072 161.565,121.200 161.880 M124.400 175.146 C 122.970 175.762,120.450 176.776,118.800 177.398 C 117.150 178.020,114.720 178.966,113.400 179.501 C 112.080 180.036,109.650 180.889,108.000 181.396 C 106.350 181.903,102.840 183.128,100.200 184.118 C 97.560 185.108,94.320 186.274,93.000 186.709 C 74.040 192.949,60.921 205.790,64.178 214.921 C 66.350 221.010,68.098 221.249,74.662 216.354 C 80.594 211.930,89.992 207.511,95.400 206.603 C 96.280 206.455,98.350 205.907,100.000 205.385 C 107.739 202.938,119.175 201.229,127.933 201.210 C 132.069 201.202,133.329 201.044,135.733 200.235 C 137.310 199.705,139.852 199.063,141.383 198.809 C 146.007 198.042,155.204 194.206,159.049 191.439 C 162.165 189.198,162.299 188.336,159.597 187.930 C 158.609 187.781,155.910 187.373,153.600 187.023 C 147.717 186.133,145.845 185.130,141.200 180.377 C 134.549 173.572,130.774 172.396,124.400 175.146 M135.000 176.796 C 136.100 177.553,138.515 179.764,140.367 181.709 C 144.788 186.352,150.665 189.174,155.982 189.206 C 162.034 189.243,148.175 196.412,139.611 197.675 C 137.955 197.920,135.471 198.543,134.091 199.060 C 131.926 199.871,130.857 200.001,126.291 200.006 C 118.975 200.015,112.234 200.631,109.176 201.570 C 107.759 202.005,105.425 202.547,103.988 202.774 C 102.551 203.001,100.121 203.619,98.588 204.147 C 97.055 204.674,94.928 205.231,93.862 205.383 C 91.617 205.704,86.045 207.786,82.659 209.568 C 81.372 210.246,80.112 210.803,79.859 210.808 C 79.607 210.812,77.442 212.252,75.048 214.008 C 72.655 215.763,70.459 217.200,70.169 217.200 C 69.038 217.200,65.600 211.482,65.600 209.602 C 65.600 205.518,76.589 194.945,83.822 192.070 C 84.910 191.637,87.330 190.615,89.200 189.799 C 91.070 188.982,93.950 187.916,95.600 187.429 C 97.250 186.943,99.816 186.065,101.303 185.479 C 102.789 184.892,105.160 183.960,106.571 183.406 C 107.982 182.853,109.480 182.400,109.900 182.400 C 110.321 182.400,111.550 181.948,112.632 181.396 C 113.714 180.844,115.680 180.046,117.000 179.624 C 120.704 178.440,124.576 176.924,126.266 175.995 C 128.698 174.659,132.389 174.998,135.000 176.796 " stroke="none" fill="#e4b452" fill-rule="evenodd"></path><path id="path6" d="M127.867 74.496 C 113.144 75.417,106.989 82.058,107.010 97.000 L 107.020 104.200 108.473 108.400 C 111.926 118.387,114.762 123.539,126.340 140.866 C 135.399 154.423,136.489 156.270,143.005 169.130 C 149.346 181.645,150.272 182.150,166.973 182.182 C 178.327 182.203,178.945 181.936,180.793 176.200 C 181.428 174.226,183.899 168.157,184.619 166.800 C 184.911 166.250,185.941 164.090,186.909 162.000 C 190.639 153.942,198.790 142.885,204.319 138.381 C 209.677 134.017,216.005 127.407,216.003 126.178 C 215.994 122.138,197.072 103.061,185.000 94.920 C 177.898 90.131,167.254 84.413,160.200 81.598 C 158.660 80.983,155.870 79.822,154.000 79.016 C 152.084 78.191,148.767 77.202,146.400 76.749 C 144.090 76.308,141.265 75.679,140.122 75.351 C 136.942 74.440,133.073 74.170,127.867 74.496 M137.800 76.159 C 140.000 76.685,143.134 77.336,144.764 77.605 C 151.295 78.682,166.799 85.318,177.056 91.426 C 187.791 97.818,191.623 100.828,201.951 110.981 C 216.347 125.131,216.415 125.292,210.335 130.820 C 194.315 145.388,185.704 157.719,180.614 173.382 C 179.548 176.663,178.103 179.484,177.038 180.369 C 176.279 180.999,162.973 181.260,158.090 180.741 C 150.220 179.905,149.078 178.908,143.805 168.286 C 137.533 155.651,136.092 153.276,122.401 133.000 C 103.940 105.660,102.675 82.659,119.341 77.376 C 126.109 75.230,132.235 74.826,137.800 76.159 M205.420 103.400 C 205.480 103.950,205.365 104.400,205.165 104.400 C 204.194 104.400,205.413 107.369,207.266 109.514 C 207.890 110.237,208.400 110.998,208.400 111.206 C 208.400 111.414,208.846 111.697,209.390 111.833 C 210.537 112.121,213.200 114.909,213.200 115.822 C 213.200 116.162,213.785 116.704,214.500 117.026 C 215.215 117.348,216.091 117.818,216.446 118.070 C 216.835 118.345,217.391 118.396,217.846 118.198 C 218.261 118.017,218.735 117.831,218.900 117.785 C 219.065 117.738,219.335 117.656,219.500 117.603 C 219.665 117.549,219.935 117.527,220.100 117.553 C 220.497 117.615,220.470 117.131,220.039 116.449 C 219.847 116.146,219.491 116.020,219.249 116.170 C 218.983 116.334,218.894 116.221,219.023 115.885 C 219.140 115.579,218.913 115.083,218.518 114.783 C 217.964 114.363,217.907 114.360,218.270 114.769 C 218.622 115.167,218.625 115.421,218.281 115.789 C 217.642 116.473,216.734 116.132,215.838 114.872 C 215.420 114.282,215.321 114.025,215.618 114.300 C 215.916 114.575,216.349 114.794,216.580 114.787 C 216.811 114.779,216.640 114.464,216.200 114.087 C 215.185 113.215,214.932 111.694,215.934 112.486 C 216.292 112.769,216.143 112.455,215.603 111.789 C 214.543 110.482,212.031 108.278,212.539 109.100 C 212.735 109.418,212.620 109.600,212.224 109.600 C 211.881 109.600,211.600 109.432,211.600 109.226 C 211.600 109.021,211.195 108.926,210.700 109.014 C 209.629 109.206,208.913 108.825,208.793 108.000 C 208.622 106.832,208.801 106.353,209.300 106.638 C 209.575 106.795,209.260 106.328,208.600 105.600 C 207.940 104.872,207.670 104.429,208.000 104.615 C 208.516 104.906,208.524 104.859,208.055 104.281 C 207.755 103.911,207.352 103.706,207.159 103.825 C 206.967 103.944,206.928 103.733,207.073 103.355 C 207.244 102.909,207.182 102.764,206.896 102.941 C 206.653 103.091,206.342 103.030,206.204 102.807 C 205.743 102.060,205.309 102.388,205.420 103.400 M234.200 121.622 C 230.569 122.108,227.685 123.544,215.230 131.067 C 214.037 131.788,211.607 133.630,209.830 135.160 C 207.015 137.585,205.182 139.544,199.361 146.351 C 196.172 150.081,192.245 157.060,191.365 160.564 C 190.900 162.413,190.195 163.840,188.954 165.437 C 185.349 170.080,186.871 172.701,191.752 170.257 C 197.751 167.252,200.886 166.380,207.200 165.961 C 210.390 165.749,215.160 165.310,217.800 164.987 C 223.885 164.240,233.117 164.234,238.686 164.971 C 241.059 165.286,244.080 165.660,245.400 165.802 C 246.720 165.945,249.330 166.603,251.200 167.265 C 259.487 170.196,264.426 172.009,267.400 173.210 C 269.160 173.921,272.040 175.009,273.800 175.627 C 275.560 176.246,279.070 177.491,281.600 178.394 C 284.130 179.298,287.190 180.305,288.400 180.633 C 289.610 180.961,293.480 182.198,297.000 183.383 C 309.705 187.659,321.839 188.752,332.998 186.626 C 349.931 183.399,349.546 175.056,332.316 171.806 C 321.372 169.742,309.108 163.995,299.200 156.286 C 297.550 155.003,294.040 152.314,291.400 150.312 C 288.760 148.310,285.087 145.396,283.237 143.836 C 261.301 125.339,248.791 119.671,234.200 121.622 M251.059 124.309 C 255.490 126.293,259.253 128.177,261.173 129.376 C 261.958 129.865,263.770 130.957,265.200 131.802 C 268.292 133.628,276.224 139.625,281.800 144.351 C 284.000 146.215,287.420 148.940,289.400 150.404 C 291.380 151.869,294.944 154.622,297.320 156.522 C 307.750 164.862,318.249 169.957,330.861 172.798 C 336.004 173.956,340.631 175.768,340.572 176.600 C 340.543 177.008,338.234 178.755,336.363 179.784 C 335.793 180.098,333.199 180.634,330.599 180.975 C 327.999 181.316,325.785 181.682,325.679 181.788 C 324.698 182.769,337.593 182.495,339.371 181.498 C 340.016 181.137,340.711 180.945,340.918 181.073 C 341.281 181.297,339.506 182.386,336.200 183.967 C 334.734 184.667,332.965 184.961,323.883 186.009 C 318.508 186.629,306.107 184.871,299.442 182.543 C 296.559 181.536,293.022 180.398,291.581 180.015 C 288.255 179.130,282.897 177.394,279.800 176.197 C 278.480 175.687,276.320 174.907,275.000 174.464 C 273.680 174.020,271.160 173.086,269.400 172.387 C 265.881 170.989,253.136 166.229,250.600 165.365 C 237.952 161.057,205.146 162.630,192.313 168.159 C 188.964 169.602,188.729 168.453,191.621 164.772 C 193.467 162.424,193.628 162.052,193.470 160.498 C 192.829 154.167,207.647 136.857,219.755 129.794 C 221.540 128.753,223.900 127.331,225.000 126.633 C 227.210 125.232,231.537 123.233,233.400 122.752 C 234.060 122.581,237.480 122.494,241.000 122.557 L 247.400 122.672 251.059 124.309 M125.114 154.922 C 117.598 158.727,108.844 169.484,111.280 171.920 C 112.354 172.994,114.698 172.483,123.800 169.191 C 125.523 168.568,127.599 168.249,131.158 168.061 C 138.772 167.660,138.992 166.957,134.098 158.669 C 131.301 153.931,128.982 152.964,125.114 154.922 M130.959 156.361 C 132.219 157.545,135.757 164.614,135.467 165.369 C 135.106 166.311,133.476 166.799,130.674 166.806 C 127.610 166.813,124.349 167.564,120.248 169.206 C 116.343 170.770,113.044 171.214,112.666 170.227 C 111.659 167.605,120.693 158.041,126.480 155.601 C 127.777 155.055,129.963 155.426,130.959 156.361 M211.204 155.629 C 209.015 156.020,207.570 156.903,208.156 157.490 C 208.581 157.916,223.839 158.113,225.720 157.717 C 231.771 156.444,217.848 154.441,211.204 155.629 M235.020 158.768 C 235.444 159.179,242.147 160.400,243.977 160.400 C 245.719 160.400,245.857 159.666,244.242 158.992 C 242.649 158.326,234.356 158.125,235.020 158.768 M249.867 160.667 C 249.360 161.174,249.605 161.582,250.780 162.190 C 252.141 162.893,257.200 163.044,257.200 162.380 C 257.200 161.224,250.804 159.729,249.867 160.667 M269.200 166.800 C 269.976 167.301,270.400 167.301,270.400 166.800 C 270.400 166.580,269.995 166.403,269.500 166.406 C 268.772 166.411,268.715 166.486,269.200 166.800 M214.600 167.443 C 195.365 170.080,187.335 174.598,181.761 185.919 C 179.375 190.766,178.793 191.647,177.479 192.401 C 176.643 192.881,174.591 194.362,172.918 195.691 C 169.399 198.487,164.522 201.527,160.800 203.244 C 151.959 207.323,152.019 207.237,153.005 214.288 C 153.835 220.229,153.656 233.195,152.642 240.600 C 152.310 243.020,151.852 247.340,151.623 250.200 C 151.394 253.060,150.942 256.261,150.618 257.313 C 150.295 258.365,149.837 260.345,149.600 261.713 C 148.923 265.627,146.519 272.961,144.197 278.200 C 143.027 280.840,141.379 285.250,140.535 288.000 L 139.000 293.000 139.024 301.000 C 139.046 308.260,139.146 309.393,140.104 313.249 C 141.482 318.795,142.000 324.095,142.000 332.662 C 142.000 342.492,142.336 342.965,149.649 343.435 C 156.112 343.850,157.813 343.352,161.456 339.974 C 165.605 336.127,173.090 331.306,181.800 326.871 C 198.852 318.188,215.056 301.627,224.240 283.495 C 228.831 274.431,232.525 265.372,233.195 261.532 C 233.439 260.139,234.066 257.650,234.591 256.000 C 235.115 254.350,235.661 252.370,235.803 251.600 C 235.946 250.830,236.491 248.760,237.014 247.000 C 238.141 243.210,240.279 229.789,240.613 224.400 C 240.743 222.310,241.153 219.070,241.524 217.200 C 242.316 213.216,242.399 201.652,241.671 196.800 C 241.423 195.150,241.022 190.569,240.779 186.619 C 240.064 174.990,238.411 169.494,235.200 168.068 C 233.840 167.464,217.962 166.982,214.600 167.443 M273.298 168.500 C 273.545 169.247,275.229 169.987,276.700 169.994 C 278.401 170.002,278.358 169.309,276.613 168.580 C 274.881 167.856,273.071 167.812,273.298 168.500 M234.868 169.696 C 236.897 170.575,237.405 172.052,238.977 181.640 C 239.336 183.827,240.788 205.019,240.794 208.160 C 240.805 213.390,237.247 240.944,236.011 245.200 C 235.596 246.630,235.126 248.520,234.967 249.400 C 234.809 250.280,234.272 252.200,233.775 253.666 C 233.278 255.132,232.661 257.382,232.404 258.666 C 227.294 284.200,204.582 313.875,181.200 325.568 C 175.576 328.380,165.687 334.455,162.915 336.800 C 156.629 342.118,155.418 342.611,149.685 342.181 C 146.313 341.928,145.761 341.775,144.649 340.781 L 143.400 339.664 143.361 332.132 C 143.320 324.347,142.362 316.017,140.953 311.200 C 139.599 306.571,139.707 295.681,141.157 290.622 C 141.841 288.237,142.400 286.130,142.400 285.939 C 142.400 285.480,145.584 278.023,146.217 277.000 C 147.738 274.540,151.505 260.489,152.382 254.000 C 154.616 237.481,155.224 226.023,154.412 215.755 C 153.783 207.800,154.303 206.867,160.400 204.998 C 162.106 204.475,169.222 200.059,173.047 197.149 C 178.296 193.156,180.397 192.805,180.403 195.920 C 180.407 197.865,181.050 201.815,182.022 205.867 C 183.826 213.387,184.326 223.858,183.399 234.742 C 182.784 241.954,183.001 244.265,184.059 241.800 C 185.059 239.470,184.796 210.173,183.738 206.000 C 183.263 204.130,182.743 201.160,182.583 199.400 C 182.422 197.640,182.036 195.480,181.724 194.600 C 180.147 190.141,184.758 180.748,190.546 176.628 C 196.297 172.535,204.893 170.014,216.400 169.046 C 221.219 168.640,233.423 169.070,234.868 169.696 M127.462 171.232 C 125.955 171.437,123.525 172.124,122.062 172.758 C 120.598 173.392,118.950 174.034,118.400 174.185 C 117.850 174.336,116.140 174.975,114.600 175.606 C 111.642 176.817,107.778 178.217,103.800 179.518 C 98.271 181.327,88.850 184.758,87.381 185.496 C 86.512 185.934,85.080 186.521,84.200 186.801 C 73.587 190.180,62.420 201.440,59.419 211.788 C 59.038 213.101,58.404 214.811,58.011 215.588 C 55.961 219.630,55.633 239.344,57.552 243.106 C 60.526 248.936,62.496 248.365,66.870 240.406 C 75.074 225.477,83.951 217.936,95.800 215.832 C 96.680 215.676,99.740 215.031,102.600 214.398 C 111.968 212.328,118.512 211.228,124.000 210.802 C 126.970 210.572,131.110 210.023,133.200 209.583 C 135.290 209.143,138.170 208.542,139.600 208.248 C 149.172 206.279,159.463 202.204,163.800 198.665 C 169.244 194.222,173.588 190.267,173.817 189.546 C 174.291 188.053,172.895 187.079,170.662 187.342 C 168.878 187.553,168.646 187.478,167.736 186.397 C 166.381 184.786,164.760 184.420,157.800 184.154 C 149.998 183.856,149.162 183.480,142.778 177.395 C 136.308 171.229,134.076 170.331,127.462 171.232 M280.400 171.210 C 280.400 171.685,282.097 172.400,283.226 172.400 C 284.315 172.400,284.188 171.814,282.981 171.264 C 281.721 170.690,280.400 170.662,280.400 171.210 M136.072 173.237 C 137.010 173.715,139.707 176.028,142.065 178.376 C 147.673 183.960,149.081 184.682,155.420 185.222 C 163.893 185.943,164.431 186.031,165.224 186.824 C 167.026 188.626,161.447 193.591,153.980 196.830 C 151.999 197.689,149.888 198.748,149.289 199.182 C 148.690 199.617,146.977 200.164,145.482 200.397 C 142.765 200.821,139.876 201.758,138.863 202.543 C 138.568 202.772,134.622 203.188,130.095 203.468 C 119.103 204.147,118.153 204.921,128.600 204.685 C 136.389 204.508,144.361 203.395,148.918 201.848 C 151.075 201.116,153.383 200.980,152.995 201.608 C 152.526 202.366,148.769 204.033,145.877 204.765 C 144.295 205.166,141.830 205.873,140.400 206.337 C 136.775 207.512,127.587 209.100,121.400 209.620 C 118.540 209.861,114.490 210.414,112.400 210.851 C 110.310 211.287,107.160 211.900,105.400 212.214 C 83.748 216.068,75.355 221.662,66.417 238.200 C 63.145 244.253,61.487 245.343,59.639 242.657 C 57.387 239.383,56.828 226.988,58.600 219.600 C 63.786 197.974,71.468 191.473,105.000 180.333 C 106.320 179.895,109.380 178.799,111.800 177.899 C 114.220 176.999,117.595 175.758,119.300 175.142 C 121.005 174.525,122.985 173.718,123.700 173.347 C 126.643 171.824,133.188 171.765,136.072 173.237 M286.400 173.560 C 286.400 174.238,288.432 174.928,288.938 174.422 C 289.474 173.886,289.208 173.662,287.671 173.354 C 286.833 173.187,286.400 173.257,286.400 173.560 M108.531 205.597 C 106.553 206.012,104.400 207.062,104.400 207.610 C 104.400 208.678,112.666 207.726,113.645 206.546 C 114.543 205.463,111.691 204.934,108.531 205.597 M99.600 208.800 L 98.600 209.120 99.600 209.154 C 100.150 209.173,100.870 209.013,101.200 208.800 C 101.964 208.306,101.142 208.306,99.600 208.800 M51.496 213.954 C 51.382 214.392,51.613 214.976,52.050 215.350 C 52.860 216.044,53.065 217.200,52.376 217.200 C 52.143 217.200,52.064 217.380,52.200 217.600 C 52.416 217.949,51.521 218.176,51.017 217.900 C 50.394 217.559,49.630 219.651,49.665 221.600 C 49.701 223.588,49.734 223.665,50.000 222.400 C 50.162 221.630,50.318 221.216,50.347 221.480 C 50.415 222.100,53.181 221.020,53.900 220.092 C 54.812 218.916,54.412 214.400,53.396 214.400 C 53.115 214.400,52.782 214.130,52.655 213.800 C 52.337 212.969,51.733 213.049,51.496 213.954 M71.808 222.100 C 66.544 226.443,60.249 236.400,62.766 236.400 C 63.356 236.400,65.200 234.445,65.200 233.821 C 65.200 233.389,66.123 232.090,70.272 226.688 C 71.191 225.490,72.641 223.901,73.494 223.155 C 78.499 218.781,76.982 217.831,71.808 222.100 M146.406 225.100 C 146.409 225.925,146.587 226.870,146.800 227.200 C 147.078 227.630,147.189 227.203,147.194 225.700 C 147.197 224.545,147.020 223.600,146.800 223.600 C 146.580 223.600,146.403 224.275,146.406 225.100 M181.224 249.500 C 180.947 250.105,180.548 252.452,180.337 254.716 C 180.126 256.980,179.699 259.553,179.388 260.434 C 178.584 262.713,178.222 265.843,178.726 266.155 C 179.209 266.453,179.448 265.770,179.830 263.000 C 179.982 261.900,180.516 260.183,181.017 259.184 C 182.404 256.420,183.250 250.839,182.557 249.033 C 182.203 248.111,181.795 248.254,181.224 249.500 M176.479 271.305 C 176.248 271.583,175.835 272.708,175.561 273.805 C 175.286 274.902,174.643 276.592,174.131 277.560 C 173.619 278.527,173.206 279.967,173.213 280.760 L 173.227 282.200 174.013 281.256 C 174.446 280.736,174.801 280.016,174.801 279.656 C 174.802 279.295,175.432 277.750,176.201 276.223 C 177.922 272.807,178.118 269.330,176.479 271.305 M218.559 301.764 C 218.439 302.074,217.905 302.437,217.371 302.571 C 216.835 302.706,215.950 303.529,215.395 304.408 C 214.842 305.283,214.193 306.000,213.951 306.000 C 213.668 306.000,213.599 306.531,213.756 307.500 C 213.889 308.325,214.029 309.225,214.066 309.500 C 214.103 309.775,214.311 310.000,214.529 310.000 C 214.746 310.000,214.581 310.394,214.162 310.876 L 213.400 311.751 214.600 310.901 C 215.960 309.937,218.512 307.303,218.961 306.400 C 219.125 306.070,218.976 306.149,218.630 306.576 C 218.283 307.004,218.000 307.175,218.000 306.956 C 218.000 306.294,218.863 305.649,219.449 305.874 C 219.752 305.990,220.000 305.911,220.000 305.697 C 220.000 305.484,220.426 304.880,220.946 304.355 C 222.326 302.962,222.688 301.590,221.621 301.796 C 221.169 301.883,220.800 301.784,220.800 301.577 C 220.800 300.975,218.797 301.142,218.559 301.764 M195.687 323.695 C 195.430 324.005,195.245 324.937,195.276 325.765 C 195.310 326.681,195.110 327.411,194.766 327.629 C 193.503 328.429,195.422 327.984,196.800 327.158 C 199.583 325.489,200.970 323.834,199.700 323.695 C 199.315 323.653,198.360 323.508,197.578 323.374 C 196.596 323.206,196.010 323.305,195.687 323.695 " stroke="none" fill="#594c09" fill-rule="evenodd"></path></g></svg>