<svg width="40" height="40" viewBox="0 0 40 40" fill="none" xmlns="http://www.w3.org/2000/svg">
<rect x="1" y="28" width="8" height="9" fill="#00E6DC"/>
<rect x="16" y="28" width="8" height="9" fill="#00E6DC"/>
<rect x="31" y="28" width="8" height="9" fill="#00E6DC"/>
<path d="M25.1033 2.48242H14.8967V12.6891H25.1033V2.48242ZM23.4482 11.0339H16.5518V4.13761H23.4482V11.0339ZM14.8967 37.5169H25.1033V27.3102H14.8967V37.5169ZM16.5518 28.9654H23.4482V35.8617H16.5518V28.9654ZM0 37.5169H10.2067V27.3102H0V37.5169ZM1.65518 28.9654H8.55151V35.8617H1.65518V28.9654ZM29.7933 27.3102V37.5169H40V27.3102H29.7933ZM38.3448 35.8617H31.4485V28.9654H38.3448V35.8617ZM6.33522 26.0961H4.49217V19.1998H5.10376V19.1721H18.9655V14.4825H21.0345V19.1721H34.8971V19.1998H35.8186V26.0965H33.9751V21.241H21.0345V25.9306H18.9655V21.241H6.33522V26.0961Z" fill="#121212"/>
</svg>
