<svg width="40" height="40" viewBox="0 0 40 40" fill="none" xmlns="http://www.w3.org/2000/svg">
<path d="M29.5 17.5L20.5 22L20 33.5L29.5 38L39.5 33.5L39 22.5L29.5 17.5Z" fill="#7C5DFA"/>
<path d="M0.438842 33.9834L10.0482 38.6709C10.2527 38.7707 10.5136 38.778 10.7333 38.6709L20 34.1503L29.2669 38.6709C29.4811 38.7753 29.739 38.7744 29.952 38.6709L39.5614 33.9834C39.8296 33.8525 39.9999 33.5797 39.9999 33.2812V22.3437C39.9999 22.0446 39.8241 21.7666 39.5547 21.6382L30.1562 17.1631V6.71874C30.1562 6.71599 30.1556 6.71325 30.1556 6.7105C30.1522 6.41448 29.9816 6.14867 29.7244 6.01989L20.3494 1.3324C20.1294 1.22253 19.8706 1.22253 19.6505 1.3324L10.2756 6.01989C10.0229 6.14623 9.8477 6.4099 9.84434 6.7105C9.84434 6.71325 9.84373 6.71599 9.84373 6.71874V8.28124C9.84373 8.71276 10.1935 9.06249 10.625 9.06249C11.0565 9.06249 11.4062 8.71276 11.4062 8.28124V7.98278L19.2187 11.889V21.0797L11.4062 17.1734V14.5312C11.4062 14.0997 11.0565 13.75 10.625 13.75C10.1935 13.75 9.84373 14.0997 9.84373 14.5312V17.1628L0.445251 21.6385C0.176696 21.7663 0 22.0425 0 22.3437V33.2812C0 33.58 0.170288 33.8525 0.438842 33.9834ZM1.5625 23.594L9.60936 27.5192V36.7184L1.5625 32.7929V23.594ZM19.2187 32.7929L11.1719 36.7184V27.5192L19.2187 23.594V32.7929ZM29.3832 18.5254L37.4194 22.3523L29.6093 26.1618L21.7642 22.3352L29.3832 18.5254ZM20.7812 21.0797V11.889L28.5937 7.98278V17.1734L20.7812 21.0797ZM20.7812 23.594L28.8281 27.5192V36.7184L20.7812 32.7929V23.594ZM38.4374 32.7929L30.3906 36.7184V27.5192L38.4374 23.594V32.7929ZM20 2.90466L27.6281 6.71874L20 10.5328L12.3718 6.71874L20 2.90466ZM18.2357 22.3352L10.3906 26.1618L2.58056 22.3523L10.6167 18.5254L18.2357 22.3352Z" fill="#121212"/>
<path d="M11.4062 11.4062C11.4062 11.8378 11.0565 12.1875 10.625 12.1875C10.1935 12.1875 9.84375 11.8378 9.84375 11.4062C9.84375 10.9747 10.1935 10.625 10.625 10.625C11.0565 10.625 11.4062 10.9747 11.4062 11.4062Z" fill="#121212"/>
</svg>
