<svg width="40" height="40" viewBox="0 0 40 40" fill="none" xmlns="http://www.w3.org/2000/svg">
<g clip-path="url(#clip0_86_1557)">
<path d="M13.5 3.5L9 1L6 1.5L3 3.5L1.5 6L1 9L2.5 13L5.5 18L8.5 22.5L9.5 21L13.5 14L15.5 10.5V7L13.5 3.5Z" fill="#00B669"/>
<circle cx="8.5" cy="8.5" r="2.5" fill="white"/>
<path d="M11.996 8.60024C11.996 6.55799 10.3345 4.89648 8.29222 4.89648C6.24996 4.89648 4.58838 6.55799 4.58838 8.60024C4.58838 10.6425 6.24988 12.304 8.29214 12.304C10.3344 12.304 11.996 10.6425 11.996 8.60024ZM8.29214 9.96288C7.54074 9.96288 6.9295 9.35164 6.9295 8.60024C6.9295 7.84885 7.54074 7.23761 8.29214 7.23761C9.04354 7.23761 9.65478 7.84885 9.65478 8.60024C9.65478 9.35164 9.04354 9.96288 8.29214 9.96288Z" fill="#121212"/>
<path d="M39.999 19.5543C39.9806 19.0931 39.6927 18.6858 39.2641 18.5144L26.8213 13.5372C26.4606 13.3931 26.052 13.437 25.7303 13.6547C25.4086 13.8724 25.216 14.2356 25.216 14.6241V31.7925C23.7854 32.2153 22.6761 33.3922 22.35 34.8614H5.7926C4.54454 34.8614 3.5291 33.846 3.5291 32.5979C3.5291 31.3498 4.54454 30.3344 5.7926 30.3344H16.3848C18.7931 30.3344 20.7525 28.375 20.7525 25.9667C20.7525 23.5584 18.7931 21.599 16.3848 21.599H10.3564L15.3926 13.1791C16.2462 11.7521 16.6974 10.1189 16.6974 8.45609C16.6974 3.85264 12.9522 0.107422 8.34874 0.107422C3.74529 0.107422 0 3.85256 0 8.45601V8.48585C0 10.1263 0.439973 11.7406 1.2723 13.1542L7.28355 23.3634C7.47108 23.6649 7.8167 23.943 8.28825 23.9401H16.3849C17.5023 23.9401 18.4114 24.8492 18.4114 25.9666C18.4114 27.0841 17.5023 27.9932 16.3849 27.9932H5.7926C3.2536 27.9932 1.18789 30.0589 1.18789 32.5979C1.18789 35.1369 3.2536 37.2026 5.7926 37.2026H22.512C23.0993 38.7722 24.614 39.8928 26.386 39.8928C28.666 39.8928 30.5208 38.0379 30.5208 35.7579C30.5208 33.8847 29.2684 32.2994 27.5572 31.793V26.5034L39.3498 20.65C39.7633 20.4446 40.0176 20.0156 39.999 19.5543ZM3.28969 11.9663C2.66913 10.9123 2.34112 9.70881 2.34112 8.48577V8.45593C2.34112 5.14342 5.03607 2.44839 8.34866 2.44839C11.6612 2.44839 14.3562 5.14342 14.3562 8.45593C14.3562 9.69562 14.0198 10.9132 13.3835 11.9772L8.30018 20.4759L3.28969 11.9663ZM28.1796 35.7578C28.1796 36.7469 27.3749 37.5515 26.386 37.5515C25.397 37.5515 24.5923 36.7468 24.5923 35.7578C24.5923 34.77 25.3951 33.9661 26.3825 33.9642C26.3839 33.9642 26.3853 33.9645 26.3867 33.9645C26.3879 33.9645 26.3892 33.9643 26.3905 33.9643C27.3774 33.9666 28.1796 34.7702 28.1796 35.7578ZM27.5572 23.8896V16.3531L35.9649 19.7162L27.5572 23.8896Z" fill="#121212"/>
</g>
<defs>
<clipPath id="clip0_86_1557">
<rect width="40" height="40" fill="white"/>
</clipPath>
</defs>
</svg>
