<svg width="110" height="110" viewBox="0 0 110 110" fill="none" xmlns="http://www.w3.org/2000/svg">
<path d="M108.4 55.9961V59.8121C108.4 60.7241 108.224 61.5281 107.872 62.2241C107.528 62.9281 107.04 63.4721 106.408 63.8561C105.776 64.2481 105.04 64.4441 104.2 64.4441C103.36 64.4441 102.624 64.2481 101.992 63.8561C101.36 63.4721 100.868 62.9281 100.516 62.2241C100.172 61.5281 99.9998 60.7241 99.9998 59.8121V55.9961H108.4ZM101.596 59.7161C101.596 60.5561 101.828 61.2241 102.292 61.7201C102.764 62.2241 103.4 62.4761 104.2 62.4761C105 62.4761 105.632 62.2241 106.096 61.7201C106.568 61.2241 106.804 60.5561 106.804 59.7161V57.9401H101.596V59.7161Z" fill="white"/>
<path d="M107.175 66.4719L106.796 68.3786L98.5573 66.7418L98.9361 64.835L107.175 66.4719Z" fill="white"/>
<path d="M96.9453 71.388C97.1335 70.7512 97.4004 70.1585 97.7461 69.61C98.0971 69.0714 98.464 68.6627 98.8468 68.3837L100.064 69.4316C99.7085 69.702 99.3839 70.0524 99.0899 70.4827C98.7958 70.913 98.5785 71.366 98.438 71.8416C98.2815 72.371 98.2426 72.7849 98.3212 73.0835C98.4075 73.3842 98.581 73.5732 98.8419 73.6503C99.0337 73.707 99.2136 73.6767 99.3817 73.5596C99.5552 73.4523 99.7155 73.2912 99.8625 73.076C100.007 72.8685 100.185 72.5789 100.395 72.2072C100.722 71.6365 101.016 71.1771 101.277 70.8289C101.539 70.4807 101.873 70.2123 102.279 70.0237C102.683 69.8427 103.153 69.8316 103.69 69.9903C104.158 70.1286 104.543 70.3799 104.844 70.7442C105.152 71.1107 105.343 71.5801 105.416 72.1522C105.487 72.7319 105.413 73.3901 105.195 74.1266C105.044 74.6406 104.834 75.125 104.566 75.5797C104.298 76.0344 103.994 76.4119 103.655 76.7121L102.41 75.7184C103.052 75.0989 103.483 74.4171 103.703 73.6729C103.857 73.1512 103.887 72.7389 103.793 72.4358C103.697 72.1404 103.511 71.9519 103.235 71.8703C102.958 71.7887 102.709 71.8694 102.487 72.1124C102.271 72.3654 102.01 72.768 101.705 73.3202C101.378 73.8909 101.083 74.3503 100.822 74.6985C100.561 75.0467 100.232 75.3124 99.8356 75.4956C99.4372 75.6865 98.9694 75.7026 98.4324 75.5439C97.9721 75.4078 97.5887 75.1527 97.2822 74.7785C96.9811 74.4142 96.7952 73.9422 96.7247 73.3624C96.6541 72.7826 96.7276 72.1245 96.9453 71.388Z" fill="white"/>
<path d="M93.1518 79.1469C93.5258 78.3769 94.0305 77.7594 94.6656 77.2942C95.3045 76.8396 96.0063 76.5758 96.7712 76.5027C97.5397 76.4403 98.2982 76.5909 99.0465 76.9545C99.7949 77.3181 100.378 77.8195 100.797 78.4588C101.22 79.1087 101.446 79.8235 101.476 80.6032C101.51 81.3935 101.339 82.1773 100.961 82.9544C100.643 83.6092 100.241 84.1433 99.7556 84.5567C99.2666 84.9773 98.7188 85.2626 98.1123 85.4126L97.6215 83.7867C98.4598 83.5625 99.0625 83.0726 99.4295 82.3171C99.6568 81.8493 99.7552 81.3813 99.7249 80.9129C99.7017 80.4481 99.5573 80.0221 99.2917 79.6352C99.0226 79.2554 98.6542 78.9519 98.1865 78.7246C97.7188 78.4974 97.2525 78.3954 96.7876 78.4185C96.3192 78.4489 95.8916 78.5969 95.5046 78.8625C95.1248 79.1316 94.8213 79.5 94.5941 79.9677C94.227 80.7232 94.2179 81.5015 94.567 82.3026L92.9854 82.9217C92.7213 82.3487 92.6034 81.74 92.6319 81.0956C92.6603 80.4512 92.8336 79.8017 93.1518 79.1469Z" fill="white"/>
<path d="M88.0837 85.7135C88.6018 85.0121 89.2212 84.49 89.9419 84.1471C90.6579 83.8107 91.3985 83.6765 92.1638 83.7445C92.9308 83.8237 93.6457 84.1081 94.3085 84.5976C94.9713 85.0872 95.4501 85.6845 95.7449 86.3896C96.0413 87.1058 96.134 87.8556 96.0229 88.6388C95.9071 89.4285 95.5901 90.174 95.072 90.8754C94.5539 91.5768 93.9369 92.0958 93.2209 92.4322C92.505 92.7686 91.7611 92.9005 90.9894 92.8277C90.2241 92.7597 89.51 92.4809 88.8472 91.9913C88.1844 91.5018 87.7048 90.8989 87.4083 90.1826C87.1183 89.4711 87.0289 88.7237 87.14 87.9405C87.251 87.1573 87.5656 86.415 88.0837 85.7135ZM89.4157 86.6974C89.121 87.0964 88.945 87.5233 88.8875 87.9781C88.8364 88.4377 88.9085 88.8788 89.1036 89.3014C89.2939 89.7304 89.5982 90.0994 90.0165 90.4084C90.4347 90.7173 90.8769 90.8997 91.3429 90.9555C91.8042 91.0177 92.2437 90.9545 92.6616 90.7658C93.0858 90.5819 93.4453 90.2905 93.74 89.8915C94.0347 89.4926 94.2076 89.0633 94.2586 88.6037C94.3161 88.1489 94.2496 87.707 94.0593 87.2779C93.8642 86.8553 93.5575 86.4896 93.1393 86.1806C92.721 85.8717 92.2812 85.6861 91.82 85.6238C91.3539 85.5681 90.9088 85.6321 90.4845 85.816C90.0667 86.0047 89.7104 86.2985 89.4157 86.6974Z" fill="white"/>
<path d="M80.474 92.6606L83.247 93.3014L84.5696 92.0982L82.995 90.3673L84.433 89.0591L90.0856 95.2727L87.396 97.7194C86.8456 98.2201 86.2858 98.5617 85.7165 98.7444C85.1413 98.9324 84.5908 98.9573 84.065 98.8192C83.5392 98.6811 83.0663 98.3812 82.6464 97.9197C82.2265 97.4581 81.9756 96.9563 81.8936 96.4145C81.8111 95.8839 81.8932 95.3441 82.14 94.7951L78.9295 94.0657L80.474 92.6606ZM84.1022 96.5953C84.4198 96.9445 84.7745 97.1085 85.1662 97.0874C85.5634 97.0722 85.978 96.8681 86.4099 96.4751L87.5816 95.4092L85.6113 93.2433L84.4396 94.3092C84.0076 94.7022 83.7653 95.0957 83.7127 95.4896C83.6601 95.8835 83.7899 96.2521 84.1022 96.5953Z" fill="white"/>
<path d="M82.2034 100.974L78.9615 102.987C78.1867 103.468 77.4108 103.743 76.6338 103.811C75.8543 103.89 75.1347 103.762 74.4751 103.428C73.8087 103.098 73.2539 102.576 72.8109 101.862C72.3678 101.149 72.146 100.42 72.1457 99.6762C72.1385 98.9367 72.3412 98.2317 72.7536 97.5613C73.1634 96.902 73.7557 96.3317 74.5305 95.8507L77.7725 93.8377L82.2034 100.974ZM75.454 97.1559C74.7404 97.599 74.2952 98.1485 74.1186 98.8043C73.9394 99.4711 74.0608 100.144 74.4828 100.824C74.9048 101.504 75.4522 101.908 76.1252 102.036C76.7955 102.175 77.4875 102.024 78.2012 101.58L79.71 100.644L76.9628 96.2191L75.454 97.1559Z" fill="white"/>
<path d="M54.0039 108.4L50.1879 108.4C49.2759 108.4 48.4719 108.224 47.7759 107.872C47.0719 107.528 46.5279 107.04 46.1439 106.408C45.7519 105.776 45.5559 105.04 45.5559 104.2C45.5559 103.36 45.7519 102.624 46.1439 101.992C46.5279 101.36 47.0719 100.868 47.7759 100.516C48.4719 100.172 49.2759 99.9998 50.1879 99.9998L54.0039 99.9998L54.0039 108.4ZM50.2839 101.596C49.4439 101.596 48.7759 101.828 48.2799 102.292C47.7759 102.764 47.5239 103.4 47.5239 104.2C47.5239 105 47.7759 105.632 48.2799 106.096C48.7759 106.568 49.4439 106.804 50.2839 106.804L52.0599 106.804L52.0599 101.596L50.2839 101.596Z" fill="white"/>
<path d="M43.5281 107.175L41.6214 106.796L43.2582 98.5573L45.165 98.9361L43.5281 107.175Z" fill="white"/>
<path d="M38.612 96.9453C39.2488 97.1335 39.8415 97.4004 40.39 97.7461C40.9286 98.0971 41.3373 98.464 41.6163 98.8468L40.5684 100.064C40.298 99.7085 39.9476 99.3839 39.5173 99.0899C39.087 98.7958 38.634 98.5785 38.1584 98.438C37.629 98.2815 37.2151 98.2426 36.9165 98.3212C36.6158 98.4075 36.4268 98.581 36.3497 98.8419C36.293 99.0337 36.3233 99.2136 36.4404 99.3817C36.5477 99.5552 36.7088 99.7155 36.924 99.8625C37.1315 100.007 37.4211 100.185 37.7928 100.395C38.3635 100.722 38.8229 101.016 39.1711 101.277C39.5193 101.539 39.7877 101.873 39.9763 102.279C40.1573 102.683 40.1684 103.153 40.0097 103.69C39.8714 104.158 39.6201 104.543 39.2558 104.844C38.8893 105.152 38.4199 105.343 37.8478 105.416C37.268 105.487 36.6099 105.413 35.8734 105.195C35.3594 105.044 34.875 104.834 34.4203 104.566C33.9656 104.298 33.5881 103.994 33.2878 103.655L34.2816 102.41C34.9011 103.052 35.5829 103.483 36.3271 103.703C36.8488 103.857 37.2611 103.887 37.5642 103.793C37.8596 103.697 38.0481 103.511 38.1297 103.235C38.2113 102.958 38.1306 102.709 37.8876 102.487C37.6346 102.271 37.232 102.01 36.6798 101.705C36.1091 101.378 35.6497 101.083 35.3015 100.822C34.9533 100.561 34.6876 100.232 34.5044 99.8356C34.3135 99.4372 34.2974 98.9694 34.4561 98.4324C34.5922 97.9721 34.8473 97.5887 35.2215 97.2822C35.5858 96.9811 36.0578 96.7952 36.6376 96.7247C37.2174 96.6541 37.8755 96.7276 38.612 96.9453Z" fill="white"/>
<path d="M30.8531 93.1518C31.6231 93.5258 32.2406 94.0305 32.7058 94.6656C33.1604 95.3045 33.4242 96.0063 33.4973 96.7712C33.5597 97.5397 33.4091 98.2982 33.0455 99.0465C32.6819 99.7949 32.1805 100.378 31.5412 100.797C30.8913 101.22 30.1765 101.446 29.3968 101.476C28.6065 101.51 27.8227 101.339 27.0456 100.961C26.3908 100.643 25.8567 100.241 25.4433 99.7556C25.0227 99.2666 24.7374 98.7188 24.5873 98.1123L26.2133 97.6215C26.4375 98.4598 26.9274 99.0625 27.6829 99.4295C28.1507 99.6568 28.6187 99.7552 29.0871 99.7249C29.5519 99.7017 29.9779 99.5573 30.3648 99.2917C30.7446 99.0226 31.0481 98.6542 31.2754 98.1865C31.5026 97.7188 31.6046 97.2525 31.5815 96.7876C31.5511 96.3192 31.4031 95.8916 31.1375 95.5046C30.8684 95.1248 30.5 94.8213 30.0323 94.5941C29.2768 94.227 28.4985 94.2179 27.6974 94.567L27.0783 92.9854C27.6513 92.7213 28.26 92.6034 28.9044 92.6319C29.5487 92.6603 30.1983 92.8336 30.8531 93.1518Z" fill="white"/>
<path d="M24.2865 88.0837C24.9879 88.6018 25.51 89.2212 25.8529 89.9419C26.1893 90.6579 26.3235 91.3985 26.2555 92.1638C26.1763 92.9308 25.8919 93.6457 25.4024 94.3085C24.9128 94.9713 24.3155 95.4501 23.6104 95.7449C22.8942 96.0413 22.1444 96.134 21.3612 96.0229C20.5715 95.9071 19.826 95.5901 19.1246 95.072C18.4232 94.5539 17.9042 93.9369 17.5678 93.2209C17.2314 92.505 17.0995 91.7611 17.1723 90.9894C17.2403 90.224 17.5191 89.51 18.0087 88.8472C18.4982 88.1844 19.1011 87.7048 19.8174 87.4083C20.5289 87.1183 21.2763 87.0289 22.0595 87.14C22.8427 87.251 23.585 87.5656 24.2865 88.0837ZM23.3026 89.4157C22.9036 89.121 22.4767 88.945 22.0219 88.8875C21.5623 88.8364 21.1212 88.9085 20.6986 89.1036C20.2696 89.2939 19.9006 89.5982 19.5916 90.0165C19.2827 90.4347 19.1003 90.8769 19.0445 91.3429C18.9823 91.8042 19.0455 92.2437 19.2342 92.6615C19.4181 93.0858 19.7095 93.4453 20.1085 93.74C20.5074 94.0347 20.9367 94.2076 21.3963 94.2586C21.8511 94.3161 22.293 94.2496 22.7221 94.0593C23.1447 93.8642 23.5104 93.5575 23.8194 93.1393C24.1283 92.721 24.3139 92.2812 24.3762 91.82C24.4319 91.3539 24.3679 90.9088 24.184 90.4845C23.9953 90.0667 23.7015 89.7104 23.3026 89.4157Z" fill="white"/>
<path d="M17.3394 80.474L16.6986 83.247L17.9018 84.5696L19.6327 82.995L20.9409 84.433L14.7273 90.0855L12.2806 87.396C11.7799 86.8456 11.4383 86.2858 11.2556 85.7165C11.0676 85.1413 11.0427 84.5908 11.1808 84.065C11.3189 83.5392 11.6188 83.0663 12.0803 82.6464C12.5419 82.2265 13.0437 81.9756 13.5855 81.8936C14.1161 81.8111 14.6559 81.8932 15.2049 82.14L15.9343 78.9295L17.3394 80.474ZM13.4047 84.1022C13.0555 84.4198 12.8915 84.7745 12.9126 85.1662C12.9278 85.5634 13.1319 85.9779 13.5249 86.4099L14.5908 87.5816L16.7567 85.6113L15.6908 84.4396C15.2978 84.0076 14.9043 83.7653 14.5104 83.7127C14.1165 83.6601 13.7479 83.7899 13.4047 84.1022Z" fill="white"/>
<path d="M9.02596 82.2034L7.01305 78.9615C6.53197 78.1867 6.25739 77.4108 6.1893 76.6338C6.11019 75.8543 6.23782 75.1347 6.57219 74.4751C6.90233 73.8087 7.42422 73.2539 8.13785 72.8109C8.85148 72.3678 9.58015 72.146 10.3238 72.1457C11.0633 72.1385 11.7683 72.3412 12.4387 72.7536C13.098 73.1634 13.6683 73.7557 14.1493 74.5305L16.1623 77.7725L9.02596 82.2034ZM12.8441 75.454C12.401 74.7403 11.8515 74.2952 11.1957 74.1186C10.5289 73.9394 9.8556 74.0608 9.17596 74.4828C8.49631 74.9048 8.09231 75.4522 7.96397 76.1252C7.82462 76.7955 7.97649 77.4875 8.41958 78.2012L9.35641 79.71L13.7809 76.9628L12.8441 75.454Z" fill="white"/>
<path d="M1.60019 54.0039L1.60019 50.1879C1.60018 49.2759 1.77618 48.4719 2.12818 47.7759C2.47218 47.0719 2.96019 46.5279 3.59219 46.1439C4.22419 45.7519 4.96019 45.5559 5.80019 45.5559C6.64019 45.5559 7.37619 45.7519 8.00819 46.1439C8.64019 46.5279 9.13219 47.0719 9.48419 47.7759C9.82819 48.4719 10.0002 49.2759 10.0002 50.1879L10.0002 54.0039L1.60019 54.0039ZM8.40419 50.2839C8.40419 49.4439 8.17218 48.7759 7.70818 48.2799C7.23618 47.7759 6.60019 47.5239 5.80019 47.5239C5.00019 47.5239 4.36819 47.7759 3.90419 48.2799C3.43219 48.7759 3.19619 49.4439 3.19619 50.2839L3.19619 52.0599L8.40419 52.0599L8.40419 50.2839Z" fill="white"/>
<path d="M2.82493 43.5281L3.20375 41.6214L11.4427 43.2582L11.0639 45.165L2.82493 43.5281Z" fill="white"/>
<path d="M13.0547 38.612C12.8665 39.2488 12.5996 39.8415 12.2539 40.39C11.9029 40.9286 11.536 41.3373 11.1532 41.6163L9.9363 40.5684C10.2915 40.298 10.6161 39.9476 10.9101 39.5173C11.2042 39.087 11.4215 38.634 11.562 38.1584C11.7185 37.629 11.7574 37.2151 11.6788 36.9165C11.5925 36.6158 11.419 36.4268 11.1581 36.3497C10.9663 36.293 10.7864 36.3233 10.6183 36.4404C10.4448 36.5477 10.2845 36.7088 10.1375 36.924C9.99275 37.1315 9.81539 37.4211 9.60542 37.7928C9.27826 38.3635 8.98397 38.8229 8.72257 39.1711C8.46116 39.5193 8.1274 39.7877 7.72128 39.9763C7.31743 40.1573 6.84699 40.1684 6.30995 40.0097C5.84197 39.8714 5.45742 39.6201 5.15632 39.2558C4.84755 38.8893 4.65675 38.4199 4.58391 37.8478C4.51334 37.2681 4.5869 36.6099 4.80457 35.8734C4.95649 35.3594 5.16638 34.875 5.43425 34.4203C5.70212 33.9656 6.00555 33.5881 6.34455 33.2879L7.58996 34.2816C6.94806 34.9011 6.51714 35.5829 6.2972 36.3271C6.14301 36.8488 6.1129 37.2611 6.20686 37.5642C6.30308 37.8596 6.48929 38.0481 6.76548 38.1297C7.04167 38.2113 7.29076 38.1306 7.51275 37.8876C7.72934 37.6346 7.99014 37.232 8.29515 36.6798C8.62231 36.1091 8.9166 35.6497 9.17801 35.3015C9.43941 34.9533 9.7682 34.6876 10.1644 34.5044C10.5628 34.3135 11.0306 34.2974 11.5676 34.4561C12.0279 34.5922 12.4113 34.8473 12.7178 35.2215C13.0189 35.5858 13.2048 36.0578 13.2753 36.6376C13.3459 37.2174 13.2723 37.8755 13.0547 38.612Z" fill="white"/>
<path d="M16.8482 30.8531C16.4742 31.6231 15.9695 32.2406 15.3344 32.7058C14.6955 33.1604 13.9937 33.4242 13.2288 33.4973C12.4603 33.5597 11.7018 33.4091 10.9535 33.0455C10.2051 32.6819 9.62159 32.1805 9.20285 31.5412C8.78041 30.8913 8.55403 30.1765 8.52369 29.3968C8.48965 28.6065 8.66142 27.8227 9.039 27.0456C9.35714 26.3908 9.75895 25.8567 10.2444 25.4433C10.7334 25.0227 11.2811 24.7374 11.8877 24.5874L12.3785 26.2133C11.5402 26.4375 10.9375 26.9274 10.5704 27.6829C10.3432 28.1507 10.2448 28.6187 10.2751 29.0871C10.2983 29.5519 10.4427 29.9779 10.7083 30.3648C10.9774 30.7446 11.3458 31.0481 11.8135 31.2754C12.2812 31.5026 12.7475 31.6046 13.2124 31.5815C13.6808 31.5511 14.1084 31.4031 14.4954 31.1375C14.8752 30.8684 15.1787 30.5 15.4059 30.0323C15.773 29.2768 15.7821 28.4985 15.433 27.6974L17.0146 27.0783C17.2787 27.6513 17.3966 28.26 17.3681 28.9044C17.3397 29.5488 17.1664 30.1983 16.8482 30.8531Z" fill="white"/>
<path d="M21.9163 24.2865C21.3982 24.9879 20.7788 25.51 20.0581 25.8529C19.3421 26.1893 18.6015 26.3235 17.8362 26.2555C17.0692 26.1763 16.3543 25.8919 15.6915 25.4024C15.0287 24.9128 14.5499 24.3155 14.2551 23.6104C13.9587 22.8942 13.866 22.1444 13.9771 21.3612C14.0929 20.5715 14.4099 19.826 14.928 19.1246C15.4461 18.4232 16.0631 17.9042 16.7791 17.5678C17.495 17.2314 18.2389 17.0995 19.0106 17.1723C19.7759 17.2403 20.49 17.5191 21.1528 18.0087C21.8156 18.4982 22.2952 19.1011 22.5916 19.8174C22.8817 20.5289 22.9711 21.2763 22.86 22.0595C22.749 22.8427 22.4344 23.5851 21.9163 24.2865ZM20.5843 23.3026C20.8789 22.9036 21.055 22.4767 21.1125 22.0219C21.1636 21.5623 21.0915 21.1212 20.8964 20.6986C20.7061 20.2696 20.4018 19.9006 19.9835 19.5916C19.5653 19.2827 19.1231 19.1003 18.6571 19.0445C18.1958 18.9823 17.7563 19.0455 17.3384 19.2342C16.9142 19.4181 16.5547 19.7095 16.26 20.1085C15.9653 20.5074 15.7924 20.9367 15.7414 21.3963C15.6839 21.8511 15.7504 22.293 15.9407 22.7221C16.1358 23.1447 16.4425 23.5104 16.8607 23.8194C17.279 24.1283 17.7188 24.3139 18.18 24.3762C18.6461 24.432 19.0912 24.3679 19.5155 24.184C19.9333 23.9953 20.2896 23.7015 20.5843 23.3026Z" fill="white"/>
<path d="M29.526 17.3394L26.753 16.6986L25.4304 17.9018L27.005 19.6327L25.567 20.9409L19.9144 14.7273L22.604 12.2806C23.1544 11.7799 23.7142 11.4383 24.2835 11.2556C24.8587 11.0676 25.4092 11.0427 25.935 11.1808C26.4608 11.3189 26.9337 11.6188 27.3536 12.0803C27.7735 12.5419 28.0244 13.0437 28.1064 13.5855C28.1889 14.1161 28.1068 14.6559 27.86 15.2049L31.0705 15.9343L29.526 17.3394ZM25.8978 13.4047C25.5802 13.0555 25.2255 12.8915 24.8338 12.9126C24.4366 12.9278 24.022 13.1319 23.5901 13.5249L22.4184 14.5908L24.3887 16.7567L25.5604 15.6908C25.9924 15.2978 26.2347 14.9043 26.2873 14.5104C26.3399 14.1165 26.2101 13.7479 25.8978 13.4047Z" fill="white"/>
<path d="M27.7966 9.02596L31.0385 7.01305C31.8133 6.53197 32.5892 6.25739 33.3662 6.1893C34.1457 6.11019 34.8653 6.23782 35.5249 6.57219C36.1913 6.90233 36.746 7.42422 37.1891 8.13785C37.6322 8.85148 37.854 9.58015 37.8543 10.3238C37.8615 11.0633 37.6588 11.7683 37.2464 12.4387C36.8366 13.098 36.2443 13.6683 35.4695 14.1493L32.2275 16.1623L27.7966 9.02596ZM34.546 12.8441C35.2596 12.401 35.7048 11.8515 35.8814 11.1957C36.0606 10.5289 35.9392 9.8556 35.5172 9.17596C35.0952 8.49631 34.5478 8.09231 33.8748 7.96397C33.2045 7.82462 32.5125 7.97649 31.7988 8.41958L30.29 9.35641L33.0372 13.7809L34.546 12.8441Z" fill="white"/>
<path d="M55.9961 1.59961L59.8121 1.59961C60.7241 1.59961 61.5281 1.77561 62.2241 2.12761C62.9281 2.47161 63.4721 2.95961 63.8561 3.59161C64.2481 4.22361 64.4441 4.95961 64.4441 5.79961C64.4441 6.63961 64.2481 7.37561 63.8561 8.00761C63.4721 8.63961 62.9281 9.13161 62.2241 9.48361C61.5281 9.82761 60.7241 9.99961 59.8121 9.99961H55.9961L55.9961 1.59961ZM59.7161 8.40361C60.5561 8.40361 61.2241 8.17161 61.7201 7.70761C62.2241 7.23561 62.4761 6.59961 62.4761 5.79961C62.4761 4.99961 62.2241 4.36761 61.7201 3.90361C61.2241 3.43161 60.5561 3.19561 59.7161 3.19561H57.9401L57.9401 8.40361H59.7161Z" fill="white"/>
<path d="M66.4719 2.82436L68.3786 3.20317L66.7418 11.4422L64.835 11.0633L66.4719 2.82436Z" fill="white"/>
<path d="M71.388 13.0541C70.7512 12.8659 70.1585 12.599 69.61 12.2533C69.0714 11.9023 68.6627 11.5354 68.3837 11.1526L69.4316 9.93573C69.702 10.2909 70.0524 10.6155 70.4827 10.9096C70.913 11.2036 71.366 11.4209 71.8416 11.5615C72.371 11.7179 72.7849 11.7568 73.0835 11.6782C73.3842 11.5919 73.5732 11.4184 73.6503 11.1575C73.707 10.9657 73.6767 10.7858 73.5596 10.6177C73.4523 10.4442 73.2912 10.2839 73.076 10.1369C72.8685 9.99217 72.5789 9.81482 72.2072 9.60485C71.6365 9.27768 71.1771 8.9834 70.8289 8.72199C70.4807 8.46059 70.2123 8.12682 70.0237 7.72071C69.8427 7.31686 69.8316 6.84642 69.9903 6.30938C70.1286 5.84139 70.3799 5.45685 70.7442 5.15575C71.1107 4.84698 71.5801 4.65617 72.1522 4.58334C72.7319 4.51277 73.3901 4.58632 74.1266 4.804C74.6406 4.95592 75.125 5.16581 75.5797 5.43368C76.0344 5.70155 76.4119 6.00498 76.7121 6.34397L75.7184 7.58939C75.0989 6.94749 74.4171 6.51657 73.6729 6.29663C73.1512 6.14244 72.7389 6.11232 72.4358 6.20628C72.1404 6.30251 71.9519 6.48871 71.8703 6.7649C71.7887 7.04109 71.8694 7.29018 72.1124 7.51217C72.3654 7.72876 72.768 7.98956 73.3202 8.29458C73.8909 8.62174 74.3503 8.91602 74.6985 9.17743C75.0467 9.43884 75.3124 9.76763 75.4956 10.1638C75.6865 10.5623 75.7026 11.03 75.5439 11.567C75.4078 12.0273 75.1527 12.4108 74.7785 12.7173C74.4142 13.0184 73.9422 13.2042 73.3624 13.2748C72.7826 13.3453 72.1245 13.2718 71.388 13.0541Z" fill="white"/>
<path d="M79.1469 16.8477C78.3769 16.4736 77.7594 15.969 77.2942 15.3338C76.8396 14.6949 76.5758 13.9931 76.5027 13.2282C76.4403 12.4597 76.5909 11.7013 76.9545 10.9529C77.3181 10.2046 77.8195 9.62101 78.4588 9.20228C79.1087 8.77984 79.8235 8.55345 80.6032 8.52312C81.3935 8.48908 82.1773 8.66085 82.9544 9.03842C83.6092 9.35656 84.1433 9.75837 84.5567 10.2438C84.9773 10.7328 85.2626 11.2806 85.4126 11.8871L83.7867 12.3779C83.5625 11.5396 83.0726 10.937 82.3171 10.5699C81.8493 10.3426 81.3813 10.2442 80.9129 10.2746C80.4481 10.2977 80.0221 10.4421 79.6352 10.7077C79.2554 10.9768 78.9519 11.3452 78.7246 11.8129C78.4974 12.2807 78.3954 12.7469 78.4185 13.2118C78.4489 13.6802 78.5969 14.1078 78.8625 14.4948C79.1316 14.8746 79.5 15.1781 79.9677 15.4054C80.7232 15.7724 81.5015 15.7815 82.3026 15.4325L82.9217 17.014C82.3487 17.2782 81.74 17.396 81.0956 17.3675C80.4512 17.3391 79.8017 17.1658 79.1469 16.8477Z" fill="white"/>
<path d="M85.7135 21.9157C85.0121 21.3976 84.49 20.7782 84.1471 20.0575C83.8107 19.3415 83.6765 18.6009 83.7445 17.8356C83.8237 17.0686 84.1081 16.3537 84.5976 15.6909C85.0872 15.0281 85.6845 14.5493 86.3896 14.2546C87.1058 13.9581 87.8556 13.8654 88.6388 13.9765C89.4285 14.0924 90.174 14.4093 90.8754 14.9274C91.5768 15.4455 92.0958 16.0625 92.4322 16.7785C92.7686 17.4944 92.9005 18.2383 92.8277 19.0101C92.7597 19.7754 92.4809 20.4894 91.9913 21.1522C91.5018 21.815 90.8989 22.2946 90.1826 22.5911C89.4711 22.8811 88.7237 22.9705 87.9405 22.8595C87.1573 22.7484 86.415 22.4338 85.7135 21.9157ZM86.6974 20.5837C87.0964 20.8784 87.5233 21.0545 87.9781 21.1119C88.4377 21.163 88.8788 21.091 89.3014 20.8959C89.7304 20.7055 90.0994 20.4012 90.4084 19.983C90.7173 19.5647 90.8997 19.1225 90.9555 18.6565C91.0177 18.1953 90.9545 17.7557 90.7658 17.3379C90.5819 16.9136 90.2905 16.5541 89.8915 16.2594C89.4926 15.9647 89.0633 15.7919 88.6037 15.7408C88.1489 15.6833 87.707 15.7498 87.2779 15.9401C86.8553 16.1352 86.4896 16.4419 86.1806 16.8602C85.8717 17.2784 85.6861 17.7182 85.6238 18.1795C85.5681 18.6455 85.6321 19.0906 85.816 19.5149C86.0047 19.9327 86.2985 20.289 86.6974 20.5837Z" fill="white"/>
<path d="M92.6606 29.5254L93.3014 26.7524L92.0982 25.4298L90.3673 27.0045L89.0591 25.5665L95.2727 19.9139L97.7194 22.6035C98.2201 23.1538 98.5617 23.7136 98.7444 24.2829C98.9324 24.8581 98.9573 25.4086 98.8192 25.9344C98.6811 26.4602 98.3812 26.9331 97.9197 27.353C97.4581 27.7729 96.9563 28.0238 96.4145 28.1058C95.8839 28.1883 95.3441 28.1062 94.7951 27.8594L94.0657 31.0699L92.6606 29.5254ZM96.5953 25.8972C96.9445 25.5796 97.1085 25.2249 97.0874 24.8332C97.0722 24.436 96.8681 24.0215 96.4751 23.5895L95.4092 22.4178L93.2433 24.3881L94.3092 25.5598C94.7022 25.9918 95.0957 26.2341 95.4896 26.2867C95.8835 26.3393 96.2521 26.2095 96.5953 25.8972Z" fill="white"/>
<path d="M100.974 27.796L102.987 31.0379C103.468 31.8127 103.743 32.5886 103.811 33.3656C103.89 34.1451 103.762 34.8647 103.428 35.5243C103.098 36.1907 102.576 36.7455 101.862 37.1886C101.149 37.6317 100.42 37.8534 99.6762 37.8537C98.9367 37.8609 98.2317 37.6582 97.5613 37.2458C96.902 36.836 96.3317 36.2437 95.8507 35.4689L93.8377 32.227L100.974 27.796ZM97.1559 34.5454C97.599 35.2591 98.1485 35.7042 98.8043 35.8808C99.4711 36.06 100.144 35.9386 100.824 35.5166C101.504 35.0946 101.908 34.5472 102.036 33.8742C102.175 33.2039 102.024 32.5119 101.58 31.7983L100.644 30.2894L96.2191 33.0366L97.1559 34.5454Z" fill="white"/>
<circle cx="103.5" cy="46.5" r="1.5" fill="white"/>
<circle cx="63.5" cy="103.5" r="1.5" fill="white"/>
<circle cx="6.5" cy="62.5" r="1.5" fill="white"/>
<circle cx="46.5" cy="6.5" r="1.5" fill="white"/>
</svg>
