<svg width="30" height="30" viewBox="0 0 30 30" fill="none" xmlns="http://www.w3.org/2000/svg">
<g clip-path="url(#clip0_61_1981)">
<path d="M6.03157 20.937C12.8078 23.6798 18.5007 24.3251 24.9772 20.2455C24.9311 20.3147 23.6865 22.1586 20.4137 23.1035C21.1051 24.0484 22.0501 25.1317 22.0501 25.1317C24.1475 25.1317 26.1988 24.5325 27.9735 23.3801C29.3564 22.4581 30.14 20.8678 29.9786 19.2084C29.7021 16.3734 29.0336 13.6076 27.9965 10.9572C26.6828 7.49995 23.5252 5.10291 19.8605 4.75717C19.5378 4.73411 19.3074 4.73411 19.1691 4.73411L18.8004 5.10284C23.0182 6.30136 25.1156 8.16825 25.1616 8.23743C18.6851 4.96456 11.0331 4.91851 4.51043 8.09914C4.51043 8.09914 6.58478 6.04785 11.1713 4.96456L10.8948 4.68799C10.4107 4.68799 9.94975 4.73411 9.46578 4.80321C6.07769 5.37942 3.2428 7.70728 2.02122 10.911C0.960989 13.6767 0.269561 16.5808 0.0160495 19.531C-0.122236 21.0983 0.615309 22.6425 1.906 23.5414C3.61154 24.6707 5.63977 25.27 7.69106 25.27C7.69106 25.27 8.52078 24.1867 9.35056 23.2187C6.23903 22.2968 4.9714 20.4529 4.94834 20.3838C5.09108 20.4742 5.24797 20.5658 5.41924 20.6555C5.63464 20.7682 5.84053 20.8608 6.03157 20.937ZM10.2264 19.1623C8.72824 19.1161 7.55278 17.8485 7.5989 16.3273C7.64501 14.8983 8.79742 13.7459 10.2264 13.6998C11.7245 13.7459 12.9 15.0136 12.8539 16.5348C12.7847 17.9638 11.6554 19.1162 10.2264 19.1623ZM19.63 19.1623C18.1319 19.1161 16.9564 17.8485 17.0025 16.3273C17.0486 14.8983 18.201 13.7459 19.63 13.6998C21.1282 13.7459 22.3036 15.0136 22.2575 16.5348C22.2114 17.9638 21.059 19.1162 19.63 19.1623Z" fill="white"/>
</g>
<defs>
<clipPath id="clip0_61_1981">
<rect width="30" height="30" fill="white"/>
</clipPath>
</defs>
</svg>
