<svg width="40" height="40" viewBox="0 0 40 40" fill="none" xmlns="http://www.w3.org/2000/svg">
<path d="M12 25L8 24.5L4 30.5L2.5 34L3.5 37L6.5 39H24L34 38.5L36 37L37 34L35 29L29.5 20L23 19.5L19 21.5L12 25Z" fill="#DC41A0"/>
<circle cx="13" cy="32" r="2" fill="white"/>
<circle cx="25" cy="27" r="2" fill="white"/>
<path d="M37.4982 30.9948C37.1573 30.4592 26.1972 13.2363 25.8595 12.7056V7.03125C27.798 7.03125 29.3751 5.45414 29.3751 3.51562C29.3751 1.57711 27.7981 0 25.8595 0H14.1408C12.2022 0 10.6251 1.57711 10.6251 3.51562C10.6251 5.45414 12.2022 7.03125 14.1408 7.03125V12.7056L2.50217 30.9948C0.0170106 34.9002 2.81724 40 7.44553 40H32.5548C37.1838 40 39.983 34.8995 37.4982 30.9948ZM16.3014 13.676C16.421 13.488 16.4846 13.2698 16.4846 13.0469V7.03125C17.1318 7.03125 17.6565 6.50656 17.6565 5.85938C17.6565 5.21219 17.1318 4.6875 16.4846 4.6875H14.1408C13.4947 4.6875 12.969 4.1618 12.969 3.51562C12.969 2.86945 13.4947 2.34375 14.1408 2.34375H25.8596C26.5058 2.34375 27.0315 2.86945 27.0315 3.51562C27.0315 4.1618 26.5058 4.6875 25.8596 4.6875H23.5158C22.8687 4.6875 22.344 5.21219 22.344 5.85938C22.344 6.50656 22.8687 7.03125 23.5158 7.03125V13.0469C23.5158 13.2698 23.5794 13.488 23.699 13.676L26.8852 18.6828C24.1582 18.0994 21.257 18.613 18.8374 20.2262L15.1756 22.6674C13.5513 23.7503 11.6316 24.2088 9.73287 23.9982L16.3014 13.676ZM32.5548 37.6562H7.44553C4.66818 37.6562 2.98857 34.596 4.47951 32.2532L8.36717 26.144C9.11912 26.3097 9.87943 26.393 10.6365 26.393C12.6901 26.393 14.7176 25.7895 16.4754 24.6176L20.1372 22.1763C22.8292 20.3817 26.2869 20.3355 29.019 22.0362L35.5207 32.2532C37.012 34.5963 35.3318 37.6562 32.5548 37.6562Z" fill="#121212"/>
<path d="M12.9688 28.2812C11.0302 28.2812 9.45312 29.8584 9.45312 31.7969C9.45312 33.7354 11.0302 35.3125 12.9688 35.3125C14.9073 35.3125 16.4844 33.7354 16.4844 31.7969C16.4844 29.8584 14.9073 28.2812 12.9688 28.2812ZM12.9688 32.9688C12.3226 32.9688 11.7969 32.443 11.7969 31.7969C11.7969 31.1507 12.3226 30.625 12.9688 30.625C13.6149 30.625 14.1406 31.1507 14.1406 31.7969C14.1406 32.443 13.615 32.9688 12.9688 32.9688Z" fill="#121212"/>
<path d="M24.6875 23.5938C22.749 23.5938 21.1719 25.1709 21.1719 27.1094C21.1719 29.0479 22.749 30.625 24.6875 30.625C26.626 30.625 28.2031 29.0479 28.2031 27.1094C28.2031 25.1709 26.6261 23.5938 24.6875 23.5938ZM24.6875 28.2812C24.0413 28.2812 23.5156 27.7555 23.5156 27.1094C23.5156 26.4632 24.0413 25.9375 24.6875 25.9375C25.3337 25.9375 25.8594 26.4632 25.8594 27.1094C25.8594 27.7555 25.3338 28.2812 24.6875 28.2812Z" fill="#121212"/>
<path d="M20 32.9688C20.6472 32.9688 21.1719 32.4441 21.1719 31.7969C21.1719 31.1497 20.6472 30.625 20 30.625C19.3528 30.625 18.8281 31.1497 18.8281 31.7969C18.8281 32.4441 19.3528 32.9688 20 32.9688Z" fill="#121212"/>
<path d="M29.375 32.9688C30.0222 32.9688 30.5469 32.4441 30.5469 31.7969C30.5469 31.1497 30.0222 30.625 29.375 30.625C28.7278 30.625 28.2031 31.1497 28.2031 31.7969C28.2031 32.4441 28.7278 32.9688 29.375 32.9688Z" fill="#121212"/>
<path d="M24.6875 35.3125C25.3347 35.3125 25.8594 34.7878 25.8594 34.1406C25.8594 33.4934 25.3347 32.9688 24.6875 32.9688C24.0403 32.9688 23.5156 33.4934 23.5156 34.1406C23.5156 34.7878 24.0403 35.3125 24.6875 35.3125Z" fill="#121212"/>
</svg>
