<svg width="40" height="40" viewBox="0 0 40 40" fill="none" xmlns="http://www.w3.org/2000/svg">
<path d="M20 14L17 13H15.5L13.5 14L11.5 15.5L10.5 18L11 21.5L12 22.5L11 25L10.5 28.5L12.5 32L17 33.5L21 34.5L26.5 32.5L28.5 30L29.5 25L28.5 22L29.5 18.5L28.5 15L24.5 13L20 14Z" fill="#ECDB0C"/>
<path d="M23.5156 11.7969C22.2754 11.7969 21.0748 12.1274 20 12.7594C18.9252 12.1274 17.7246 11.7969 16.4844 11.7969C12.6074 11.7969 9.45312 14.9512 9.45312 18.8281C9.45312 20.0534 9.77173 21.2427 10.3802 22.3035C9.77234 23.9047 9.45312 25.5273 9.45312 27.0312C9.45312 32.85 14.1159 35.2344 20 35.2344C25.8612 35.2344 30.5469 32.8995 30.5469 27.0312C30.5469 25.5273 30.2274 23.9044 29.6198 22.3035C30.2283 21.2427 30.5469 20.0534 30.5469 18.8281C30.5469 14.9512 27.3926 11.7969 23.5156 11.7969ZM12.6508 21.5106C12.092 20.7147 11.7969 19.787 11.7969 18.8281C11.7969 16.2433 13.8995 14.1406 16.4844 14.1406C17.4899 14.1406 18.4613 14.473 19.2935 15.1019C19.7116 15.4181 20.2884 15.4181 20.7065 15.1019C21.5387 14.473 22.5101 14.1406 23.5156 14.1406C26.1005 14.1406 28.2031 16.2433 28.2031 18.8281C28.2031 19.787 27.908 20.7147 27.3492 21.5106C27.117 21.8417 27.0718 22.2696 27.2302 22.6419C27.8665 24.1403 28.2031 25.658 28.2031 27.0312C28.2031 27.793 28.1015 28.4747 27.8967 29.0805C25.6839 28.5123 22.9269 28.2031 20 28.2031C17.0731 28.2031 14.3161 28.5123 12.1033 29.0805C11.8985 28.4747 11.7969 27.793 11.7969 27.0312C11.7969 25.6583 12.1335 24.1403 12.7698 22.6419C12.9282 22.2696 12.883 21.8417 12.6508 21.5106ZM20 32.8906C17.8214 32.8906 15.1974 32.5305 13.5333 31.1548C15.4041 30.7635 17.6672 30.5469 20 30.5469C22.3328 30.5469 24.5959 30.7635 26.4667 31.1548C26.3165 31.279 26.1572 31.3968 25.9872 31.5082C24.6057 32.4124 22.5351 32.8906 20 32.8906Z" fill="#121212"/>
<path d="M34.1406 9.45312C33.5574 9.45312 32.9776 9.54132 32.4231 9.711C28.8058 3.44421 24.4064 0 20 0C15.5936 0 11.1942 3.44421 7.5769 9.711C7.0224 9.54132 6.44257 9.45312 5.85938 9.45312C2.62848 9.45312 0 12.0816 0 15.3125C0 17.5528 1.28296 19.5682 3.22784 20.5478C2.65778 22.8656 2.34375 25.0909 2.34375 27.0312C2.34375 36.8427 10.3027 40 20 40C29.6927 40 37.6562 36.8454 37.6562 27.0312C37.6562 25.0909 37.3422 22.8656 36.7722 20.5478C38.717 19.5682 40 17.5528 40 15.3125C40 12.0816 37.3715 9.45312 34.1406 9.45312ZM2.34375 15.3125C2.34375 13.374 3.9209 11.7969 5.85938 11.7969C6.05438 11.7969 6.24573 11.8137 6.43372 11.8445C5.4129 13.8962 4.5462 16.0684 3.87756 18.2169C2.93945 17.5745 2.34375 16.4957 2.34375 15.3125ZM20 37.6562C11.6354 37.6562 4.6875 35.3641 4.6875 27.0312C4.6875 18.4335 11.835 2.34375 20 2.34375C28.1503 2.34375 35.3125 18.4082 35.3125 27.0312C35.3125 35.3632 28.3664 37.6562 20 37.6562ZM36.1227 18.2169C35.4538 16.0684 34.5871 13.8962 33.5663 11.8445C33.7543 11.8137 33.9456 11.7969 34.1406 11.7969C36.0791 11.7969 37.6562 13.374 37.6562 15.3125C37.6562 16.4957 37.0605 17.5745 36.1227 18.2169Z" fill="#121212"/>
<path d="M18.8281 24.6875C18.8281 25.3348 18.3035 25.8594 17.6562 25.8594C17.009 25.8594 16.4844 25.3348 16.4844 24.6875C16.4844 24.0402 17.009 23.5156 17.6562 23.5156C18.3035 23.5156 18.8281 24.0402 18.8281 24.6875Z" fill="#121212"/>
<path d="M17.6562 18.8281C17.6562 19.4754 17.1317 20 16.4844 20C15.8371 20 15.3125 19.4754 15.3125 18.8281C15.3125 18.1808 15.8371 17.6562 16.4844 17.6562C17.1317 17.6562 17.6562 18.1808 17.6562 18.8281Z" fill="#121212"/>
<path d="M24.6875 18.8281C24.6875 19.4754 24.1629 20 23.5156 20C22.8683 20 22.3438 19.4754 22.3438 18.8281C22.3438 18.1808 22.8683 17.6562 23.5156 17.6562C24.1629 17.6562 24.6875 18.1808 24.6875 18.8281Z" fill="#121212"/>
<path d="M23.5156 24.6875C23.5156 25.3348 22.991 25.8594 22.3438 25.8594C21.6965 25.8594 21.1719 25.3348 21.1719 24.6875C21.1719 24.0402 21.6965 23.5156 22.3438 23.5156C22.991 23.5156 23.5156 24.0402 23.5156 24.6875Z" fill="#121212"/>
</svg>
