<svg width="40" height="40" viewBox="0 0 40 40" fill="none" xmlns="http://www.w3.org/2000/svg">
<g clip-path="url(#clip0_86_1650)">
<path d="M10.5 29H3L2.5 30V39H10.5V29Z" fill="#DC41A0"/>
<path d="M24 19H16.5L16 21V39H24V19Z" fill="#DC41A0"/>
<path d="M37 23H29.5L29 24.6V39H37V23Z" fill="#DC41A0"/>
<path d="M39.1667 39.9997H0.833333C0.373333 39.9997 0 39.6264 0 39.1664C0 38.7063 0.373333 38.333 0.833333 38.333H39.1667C39.6267 38.333 40 38.7063 40 39.1664C40 39.6264 39.6267 39.9997 39.1667 39.9997Z" fill="#121212"/>
<path d="M10.8337 39.9997H2.50033C2.04033 39.9997 1.66699 39.6263 1.66699 39.1663V29.9997C1.66699 29.0813 2.41366 28.333 3.33366 28.333H10.0003C10.9203 28.333 11.667 29.0813 11.667 29.9997V39.1663C11.667 39.6263 11.2937 39.9997 10.8337 39.9997ZM3.33366 38.333H10.0003V29.9997H3.33366V38.333Z" fill="#121212"/>
<path d="M24.1667 39.9997H15.8333C15.3733 39.9997 15 39.6264 15 39.1664V19.9997C15 19.0813 15.7467 18.333 16.6667 18.333H23.3333C24.2533 18.333 25 19.0813 25 19.9997V39.1664C25 39.6264 24.6267 39.9997 24.1667 39.9997ZM16.6667 38.333H23.3333V19.9997H16.6667V38.333Z" fill="#121212"/>
<path d="M37.4997 40.0003H29.1663C28.7063 40.0003 28.333 39.627 28.333 39.167V23.3337C28.333 22.4153 29.0797 21.667 29.9997 21.667H36.6663C37.5863 21.667 38.333 22.4153 38.333 23.3337V39.167C38.333 39.627 37.9597 40.0003 37.4997 40.0003ZM29.9997 38.3337H36.6663V23.3337H29.9997V38.3337Z" fill="#121212"/>
<path d="M4.16676 18.3331C3.95342 18.3331 3.74009 18.2514 3.57676 18.0898C3.25176 17.7648 3.25176 17.2364 3.57676 16.9114L11.9101 8.5781C12.1168 8.37143 12.4151 8.28477 12.7018 8.3581L25.5784 11.5764L35.2451 1.90977C35.5701 1.58477 36.0984 1.58477 36.4234 1.90977C36.7484 2.23477 36.7484 2.7631 36.4234 3.0881L26.4234 13.0881C26.2184 13.2948 25.9184 13.3781 25.6318 13.3064L12.7551 10.0898L4.75509 18.0898C4.59342 18.2514 4.38009 18.3331 4.16676 18.3331Z" fill="#121212"/>
<path d="M35.833 10.0003C35.373 10.0003 34.9997 9.62699 34.9997 9.16699V3.33366H29.1663C28.7063 3.33366 28.333 2.96033 28.333 2.50033C28.333 2.04033 28.7063 1.66699 29.1663 1.66699H35.833C36.293 1.66699 36.6664 2.04033 36.6664 2.50033V9.16699C36.6664 9.62699 36.293 10.0003 35.833 10.0003Z" fill="#121212"/>
</g>
<defs>
<clipPath id="clip0_86_1650">
<rect width="40" height="40" fill="white"/>
</clipPath>
</defs>
</svg>
