<svg width="213" height="69" viewBox="0 0 213 69" fill="none" xmlns="http://www.w3.org/2000/svg">
<path d="M212.707 8.19768C213.098 7.80716 213.098 7.17399 212.707 6.78347L206.343 0.419503C205.953 0.0289808 205.319 0.0289797 204.929 0.419505C204.538 0.810027 204.538 1.44319 204.929 1.83372L210.586 7.49057L204.929 13.1474C204.538 13.5379 204.538 14.1711 204.929 14.5616C205.319 14.9522 205.953 14.9522 206.343 14.5616L212.707 8.19768ZM1.08305 68.6495L34.0003 65.8587L33.8314 63.8659L0.914095 66.6566L1.08305 68.6495ZM185.947 8.49056L212 8.49058L212 6.49058L185.947 6.49056L185.947 8.49056ZM105.103 37.1837C127.958 18.6221 156.504 8.49053 185.947 8.49056L185.947 6.49056C156.045 6.49053 127.053 16.7801 103.842 35.6312L105.103 37.1837ZM34.0003 65.8587C60.0415 63.651 84.816 53.6596 105.103 37.1837L103.842 35.6312C83.8667 51.8541 59.4726 61.692 33.8314 63.8659L34.0003 65.8587Z" fill="#121212"/>
</svg>
