<svg width="24" height="24" viewBox="0 0 24 24" fill="none" xmlns="http://www.w3.org/2000/svg">
<path d="M13 21C13 21.1314 12.9742 21.2614 12.9239 21.3827C12.8737 21.5041 12.8 21.6143 12.7072 21.7072C12.6143 21.8001 12.5041 21.8737 12.3827 21.924C12.2614 21.9742 12.1313 22 12 22H8.00001C6.67441 21.9985 5.40355 21.4712 4.4662 20.5338C3.52885 19.5965 3.00156 18.3256 3 17V7C3.00156 5.6744 3.52885 4.40354 4.4662 3.4662C5.40355 2.52886 6.67441 2.00158 8.00001 2.00003H12C12.2652 2.00003 12.5196 2.10539 12.7071 2.29292C12.8946 2.48045 13 2.7348 13 3.00002C13 3.26523 12.8946 3.51958 12.7071 3.70711C12.5196 3.89464 12.2652 4 12 4H8.00001C7.20463 4.00087 6.44207 4.31722 5.87965 4.87964C5.31723 5.44206 5.00088 6.20462 5.00002 7V17C5.00088 17.7954 5.31723 18.558 5.87965 19.1204C6.44207 19.6828 7.20463 19.9992 8.00001 20H12C12.1313 20 12.2614 20.0258 12.3827 20.0761C12.5041 20.1263 12.6143 20.2 12.7072 20.2928C12.8 20.3857 12.8737 20.496 12.9239 20.6173C12.9742 20.7386 13 20.8687 13 21ZM20.9228 12.3821C20.9982 12.1993 21.0178 11.9983 20.9792 11.8044C20.9407 11.6104 20.8457 11.4322 20.7062 11.2921L16.707 7.29297C16.6142 7.20012 16.504 7.12647 16.3826 7.07622C16.2613 7.02597 16.1313 7.0001 16 7.0001C15.8687 7.0001 15.7387 7.02597 15.6174 7.07622C15.496 7.12647 15.3858 7.20012 15.293 7.29297C15.2001 7.38582 15.1265 7.49605 15.0762 7.61736C15.026 7.73868 15.0001 7.8687 15.0001 8.00001C15.0001 8.13132 15.026 8.26134 15.0762 8.38266C15.1265 8.50397 15.2001 8.6142 15.293 8.70705L17.5859 11H9.99998C9.73477 11 9.48042 11.1054 9.29289 11.2929C9.10535 11.4805 9 11.7348 9 12C9 12.2652 9.10535 12.5196 9.29289 12.7071C9.48042 12.8946 9.73477 13 9.99998 13H17.5859L15.293 15.293C15.2001 15.3858 15.1265 15.4961 15.0762 15.6174C15.026 15.7387 15.0001 15.8687 15.0001 16C15.0001 16.1313 15.026 16.2614 15.0762 16.3827C15.1265 16.504 15.2001 16.6142 15.293 16.7071C15.3858 16.7999 15.496 16.8736 15.6174 16.9238C15.7387 16.9741 15.8687 16.9999 16 16.9999C16.1313 16.9999 16.2613 16.9741 16.3826 16.9238C16.504 16.8736 16.6142 16.7999 16.707 16.7071L20.7062 12.7078C20.7992 12.6146 20.8728 12.5039 20.9228 12.3821Z" fill="#DC41A0"/>
</svg>
