<svg width="560" height="190" viewBox="0 0 560 190" fill="none" xmlns="http://www.w3.org/2000/svg">
<path d="M39.2513 158.054L52.7875 165.878L45.4795 178.389L31.7834 170.472L0 170.821L7.7106 157.621L25.0354 157.495L16.5979 142.407L23.6582 130.32L39.2513 158.054Z" fill="#121212"/>
<path d="M76.1728 133.126C73.2111 136.683 69.8072 139.265 65.9609 140.873C62.1147 142.481 58.2099 143.006 54.2466 142.447C50.2516 141.863 46.5928 140.202 43.2699 137.464C39.9471 134.726 37.6407 131.473 36.3508 127.703C35.0292 123.908 34.8041 119.981 35.6756 115.922C36.5471 111.864 38.4637 108.056 41.4254 104.498C44.3871 100.941 47.7911 98.3586 51.6373 96.7508C55.4835 95.143 59.4041 94.6313 63.3991 95.2159C67.3624 95.7744 71.0055 97.4225 74.3283 100.16C77.6512 102.898 79.9734 106.164 81.2949 109.96C82.5849 113.729 82.7941 117.643 81.9226 121.702C81.0511 125.76 79.1345 129.568 76.1728 133.126ZM67.1062 125.656C68.2594 124.271 68.9624 122.754 69.2152 121.104C69.4625 119.397 69.2443 117.705 68.5605 116.027C67.8451 114.323 66.6487 112.78 64.9715 111.398C63.2942 110.017 61.5633 109.148 59.7787 108.792C57.9625 108.41 56.2503 108.512 54.6422 109.098C53.0286 109.626 51.6453 110.583 50.492 111.968C49.3388 113.353 48.6385 114.899 48.3912 116.606C48.1384 118.255 48.3698 119.932 49.0852 121.636C49.769 123.314 50.9495 124.844 52.6268 126.226C54.304 127.607 56.0507 128.489 57.867 128.871C59.6516 129.227 61.3507 129.141 62.9642 128.612C64.5723 128.027 65.953 127.041 67.1062 125.656Z" fill="#121212"/>
<path d="M113.183 101.24C107.729 104.964 102.465 106.401 97.3935 105.55C92.3216 104.699 87.9605 101.628 84.3102 96.3372L70.8835 76.874L82.877 68.6867L96.0597 87.796C97.8499 90.3911 99.6093 91.9662 101.338 92.5213C103.1 93.0533 104.862 92.718 106.624 91.5154C108.386 90.3127 109.317 88.8094 109.418 87.0053C109.553 85.1782 108.725 82.967 106.935 80.3719L93.7525 61.2627L105.543 53.2141L118.97 72.6773C122.62 77.9686 123.932 83.121 122.905 88.1347C121.879 93.1483 118.638 97.5169 113.183 101.24Z" fill="#121212"/>
<path d="M171.966 58.9743L157.212 66.0855L157.883 74.0735L144.571 80.4896L142.732 33.6852L155.601 27.4829L191.386 57.9264L177.852 64.4494L171.966 58.9743ZM163.792 51.3319L155.29 43.4386L156.248 54.9677L163.792 51.3319Z" fill="#121212"/>
<path d="M214.856 41.026L211.031 41.9883L213.692 52.4497L199.59 55.9984L189.009 14.3905L209.146 9.32312C213.01 8.35074 216.537 8.13769 219.728 8.68397C222.918 9.23026 225.593 10.4967 227.751 12.4834C229.909 14.47 231.391 17.0484 232.198 20.2185C232.953 23.1905 232.936 25.9564 232.146 28.5164C231.356 31.0763 229.853 33.3309 227.636 35.2801L239.684 45.9087L224.627 49.698L214.856 41.026ZM217.976 23.7973C217.583 22.2518 216.803 21.1833 215.635 20.5917C214.457 19.9606 212.913 19.8855 211 20.3667L205.862 21.6599L208.341 31.408L213.479 30.1149C215.392 29.6337 216.72 28.8567 217.464 27.784C218.199 26.6716 218.369 25.3427 217.976 23.7973Z" fill="#121212"/>
<path d="M282.97 31.8833L283.691 42.7733L247.897 45.1202L245.059 2.29445L280.054 0L280.776 10.89L260.049 12.2489L260.382 17.2656L278.586 16.072L279.276 26.4725L261.071 27.6661L261.444 33.2947L282.97 31.8833Z" fill="#121212"/>
<path d="M333.16 37.9537L329.284 37.3092L327.513 47.9784L313.221 45.6014L320.264 3.16699L340.674 6.56121C344.59 7.21253 347.894 8.42653 350.587 10.2032C353.279 11.9799 355.211 14.2116 356.383 16.8983C357.555 19.585 357.873 22.5449 357.337 25.778C356.833 28.809 355.708 31.342 353.959 33.3768C352.211 35.4117 349.934 36.8811 347.129 37.785L353.858 52.3596L338.596 49.8215L333.16 37.9537ZM342.923 23.3809C343.184 21.8047 342.901 20.5118 342.073 19.5019C341.252 18.4517 339.872 17.7654 337.934 17.4431L332.726 16.5769L331.075 26.5187L336.284 27.3849C338.222 27.7072 339.746 27.5245 340.855 26.837C341.972 26.1091 342.661 24.957 342.923 23.3809Z" fill="#DC41A0"/>
<path d="M398.331 55.8294L394.953 66.2321L360.973 55.1772L374.256 14.2676L407.478 25.0756L404.1 35.4784L384.424 29.0771L382.868 33.8694L400.15 39.4918L396.924 49.427L379.642 43.8045L377.896 49.1812L398.331 55.8294Z" fill="#DC41A0"/>
<path d="M434.269 80.4638L420.352 71.9106L413.974 76.7882L401.418 69.0711L439.914 42.2531L452.051 49.713L445.574 96.2097L432.808 88.364L434.269 80.4638ZM436.329 69.4713L438.425 58.068L429.214 65.0982L436.329 69.4713Z" fill="#DC41A0"/>
<path d="M476.755 69.9277L492.967 83.571C496.632 86.6556 499.293 90.0453 500.948 93.7401C502.662 97.4298 503.245 101.159 502.7 104.928C502.185 108.724 500.519 112.299 497.701 115.654C494.883 119.01 491.65 121.267 488.003 122.426C484.387 123.611 480.603 123.692 476.651 122.667C472.757 121.638 468.977 119.581 465.312 116.496L449.1 102.853L476.755 69.9277ZM472.111 107.446C474.492 109.45 476.954 110.371 479.496 110.209C482.096 110.042 484.436 108.72 486.517 106.242C488.598 103.765 489.484 101.246 489.175 98.6849C488.925 96.1188 487.609 93.8339 485.228 91.8303L480.576 87.9152L467.459 103.531L472.111 107.446Z" fill="#DC41A0"/>
<path d="M510.538 144.549L498.072 153.926L489.368 142.332L501.981 132.844L513.986 103.52L523.17 115.753L516.567 131.712L533.755 129.852L542.164 141.052L510.538 144.549Z" fill="#DC41A0"/>
<path d="M530.062 171.947C531.779 171.078 533.398 170.742 534.918 170.937C536.474 171.113 538.288 171.573 540.36 172.315C541.698 172.786 542.742 173.084 543.493 173.209C544.263 173.371 544.958 173.294 545.579 172.98C546.383 172.574 546.828 171.912 546.916 170.996C547.04 170.061 546.835 169.063 546.299 168.003C545.709 166.833 544.808 165.912 543.597 165.239C542.423 164.548 541.122 164.196 539.694 164.183L539.642 151.954C543.157 152.012 546.419 153.07 549.43 155.128C552.459 157.222 555.035 160.372 557.157 164.577C559.409 169.038 560.323 173.119 559.9 176.822C559.476 180.525 557.602 183.217 554.278 184.898C552.744 185.674 551.254 186.084 549.808 186.126C548.417 186.187 547.135 186.055 545.962 185.73C544.826 185.387 543.497 184.889 541.975 184.236C540.362 183.583 539.115 183.158 538.236 182.96C537.356 182.762 536.533 182.857 535.766 183.245L530.062 171.947ZM517.681 185.301C516.611 183.18 516.373 181.12 516.969 179.12C517.564 177.121 518.775 175.659 520.602 174.735C522.465 173.793 524.341 173.693 526.229 174.436C528.154 175.161 529.652 176.584 530.722 178.705C531.793 180.825 532.049 182.876 531.49 184.857C530.967 186.82 529.774 188.272 527.911 189.215C526.085 190.139 524.191 190.247 522.229 189.541C520.268 188.835 518.752 187.421 517.681 185.301Z" fill="#DC41A0"/>
</svg>
