<svg width="40" height="40" viewBox="0 0 40 40" fill="none" xmlns="http://www.w3.org/2000/svg">
<path d="M35.6252 21.125C35.5627 19.375 34.2502 17.875 32.4377 17.875C32.0627 17.875 31.6252 17.9375 31.3127 18.125C30.7502 17.125 29.6252 16.5 28.4377 16.5C28.0002 16.5 27.5627 16.625 27.1877 16.75C26.6252 15.75 25.5627 15.125 24.3127 15.125C24.0002 15.125 23.7502 15.1875 23.4377 15.25C23.4377 13.75 23.4377 12.25 23.4377 10.8125C23.4377 9.375 23.3127 8.125 22.0002 7.25C20.8127 6.4375 18.9377 6.5 17.7502 7.375C16.3127 8.4375 16.4377 10.125 16.4377 11.75C16.4377 15.625 16.4377 19.5 16.4377 23.375C16.4377 23.6875 16.4377 23.9375 16.4377 24.25C15.8752 23.75 15.3127 23.25 14.5627 22.9375C13.0627 22.4375 11.3752 22.9375 10.3752 24.125C9.3752 25.3125 9.2502 26.875 10.3752 28C12.6252 30.375 15.1877 32.5 17.5627 34.75C17.8752 35.0625 18.1877 35.375 18.5002 35.625C19.6877 36.6875 21.1877 37.1875 22.8127 37.25C24.4377 37.25 26.0627 37.25 27.6252 37.25C28.9377 37.25 30.2502 36.875 31.3752 36.125C32.3752 35.375 33.0627 34.4375 33.6877 33.375C34.3127 32.25 35.0002 31.1875 35.3127 29.9375C35.6252 28.9375 35.6252 27.875 35.6252 26.8125C35.6252 24.875 35.6877 23 35.6252 21.125ZM33.1252 21.9375C33.1252 23.5625 33.1252 25.125 33.1252 26.75C33.1252 27.5625 33.1252 28.3125 32.8752 29.125C32.6252 30.0625 32.1252 30.875 31.6252 31.6875C31.1877 32.4375 30.7502 33.25 30.0627 33.8125C29.3127 34.375 28.5002 34.625 27.5627 34.625C26.0627 34.625 24.6252 34.625 23.1252 34.625C20.8127 34.625 19.1877 32.875 17.6877 31.375C16.6252 30.375 15.5002 29.375 14.5002 28.3125C14.0002 27.8125 13.4377 27.3125 12.9377 26.8125C12.7502 26.625 12.4377 26.4375 12.2502 26.1875C12.0627 25.9375 12.1252 25.8125 12.3127 25.625C12.6252 25.25 13.0627 25.0625 13.5627 25.125C14.2502 25.25 14.8127 26 15.3127 26.4375C15.8127 26.9375 16.3752 27.4375 16.8752 27.9375C17.6252 28.6875 19.0002 28.1875 19.0002 27.0625C19.0002 21.625 19.0002 16.1875 19.0002 10.8125C19.0002 10.125 18.8127 9.25 19.7502 9.1875C20.1877 9.125 20.6877 9.1875 20.8752 9.625C21.0002 10 20.9377 10.4375 20.9377 10.8125C20.9377 13.5 21.0002 16.25 20.9377 18.9375C20.9377 19.6875 20.9377 20.4375 20.9377 21.25C20.9377 22.6875 23.1877 22.9375 23.4377 21.5C23.5002 21.125 23.4377 20.75 23.4377 20.375C23.4377 19.875 23.4377 19.3125 23.4377 18.8125C23.4377 18.1875 23.5002 17.625 24.3127 17.6875C25.1877 17.6875 25.1877 18.375 25.1877 19.0625C25.1877 19.75 25.1877 20.4375 25.1877 21.125C25.1877 21.5625 25.2502 21.875 25.5627 22.1875C26.0002 22.5625 26.8127 22.5625 27.2502 22.1875C27.5002 21.9375 27.6877 21.625 27.6877 21.25C27.6877 20.75 27.6877 20.25 27.6877 19.75C27.7502 19.3125 27.9377 19 28.4377 19C29.5002 19 29.2502 20.5 29.2502 21.1875C29.2502 22.8125 31.7502 22.8125 31.7502 21.1875C31.7502 20.4375 32.6877 20.0625 33.0627 20.75C33.1877 21.0625 33.1252 21.625 33.1252 21.9375Z" fill="#DC41A0"/>
<path d="M9.25 8.87539C9.0625 8.68789 8.875 8.50039 8.625 8.25039C10.0625 8.25039 11.4375 8.25039 12.875 8.25039C13.1875 8.25039 13.5 8.25039 13.75 8.25039C14.375 8.25039 15 7.68789 15 7.00039C15 6.31289 14.4375 5.75039 13.75 5.75039C12.0625 5.75039 10.3125 5.75039 8.625 5.75039C8.8125 5.56289 9 5.37539 9.25 5.12539C9.6875 4.68789 9.75 3.81289 9.25 3.37539C8.75 2.93789 8 2.87539 7.5 3.37539C6.5625 4.37539 5.625 5.25039 4.75 6.18789C4.25 6.68789 4.25 7.50039 4.75 7.93789C5.6875 8.87539 6.5625 9.75039 7.5 10.6879C7.9375 11.1254 8.8125 11.1879 9.25 10.6879C9.6875 10.1879 9.75 9.37539 9.25 8.87539Z" fill="#DC41A0"/>
<path d="M26.25 8.31289C27.9375 8.31289 29.6875 8.31289 31.375 8.31289C31.1875 8.50039 31 8.68789 30.75 8.93789C30.3125 9.37539 30.25 10.2504 30.75 10.6879C31.25 11.1254 32 11.1879 32.5 10.6879C33.4375 9.75039 34.3125 8.87539 35.25 7.93789C35.75 7.43789 35.75 6.62539 35.25 6.18789C34.375 5.25039 33.4375 4.37539 32.5 3.43789C32.0625 3.00039 31.1875 2.93789 30.75 3.43789C30.3125 3.93789 30.25 4.68789 30.75 5.18789C30.9375 5.37539 31.125 5.56289 31.375 5.81289C29.9375 5.81289 28.5625 5.81289 27.125 5.81289C26.8125 5.81289 26.5 5.81289 26.25 5.81289C25.625 5.81289 25 6.37539 25 7.06289C25 7.75039 25.5625 8.31289 26.25 8.31289Z" fill="#DC41A0"/>
</svg>
