<svg width="40" height="40" viewBox="0 0 40 40" fill="none" xmlns="http://www.w3.org/2000/svg">
<circle cx="13.5" cy="13.5" r="2.5" fill="#ECDB0C"/>
<circle cx="33.5" cy="6.5" r="2.5" fill="#ECDB0C"/>
<circle cx="26.5" cy="26.5" r="2.5" fill="#ECDB0C"/>
<circle cx="6.5" cy="33.5" r="2.5" fill="#ECDB0C"/>
<path d="M36.2465 8.33477C36.6415 7.79297 36.8754 7.12656 36.8754 6.40625C36.8754 4.59695 35.4034 3.125 33.5941 3.125C32.8738 3.125 32.2074 3.35891 31.6656 3.75391C28.254 1.29641 24.2347 0 20 0C15.8459 0 11.8623 1.26188 8.47992 3.64914C8.12742 3.89797 8.04336 4.38539 8.29219 4.73797C8.54102 5.09047 9.02852 5.17453 9.38102 4.9257C11.6404 3.33102 14.1914 2.28172 16.8824 1.82461C16.5692 2.22258 16.2545 2.70156 15.944 3.27844C14.9962 5.0393 14.214 7.46422 13.6688 10.322C12.2344 10.4252 11.0527 11.4536 10.7195 12.8125H3.01617C3.47023 11.7407 4.02742 10.7089 4.68508 9.73023C4.9257 9.37211 4.83039 8.88672 4.47227 8.64609C4.11414 8.40539 3.62875 8.5007 3.38812 8.85883C1.17156 12.1576 0 16.0102 0 20C0 24.2332 1.29648 28.2535 3.75367 31.6655C3.35883 32.2073 3.125 32.8736 3.125 33.5938C3.125 35.403 4.59695 36.875 6.40625 36.875C7.12648 36.875 7.79281 36.6412 8.33453 36.2463C11.7464 38.7036 15.7664 40 20 40C25.3422 40 30.3646 37.9196 34.1422 34.1421C37.9196 30.3647 40 25.3422 40 20C40 15.7658 38.7038 11.7465 36.2465 8.33477ZM37.5589 25.625H29.2279C28.9603 24.534 28.1459 23.6562 27.0929 23.2988C27.1545 22.2135 27.1875 21.1077 27.1875 20C27.1875 18.0683 27.0939 16.1781 26.9135 14.3751H37.5686C38.1426 16.1716 38.4375 18.0613 38.4375 20C38.4375 21.9609 38.1286 23.8509 37.5589 25.625ZM20 38.4375C18.691 38.4375 17.2747 36.5329 16.2113 33.3427C15.6152 31.5545 15.1541 29.4655 14.843 27.1876H22.8548C23.1049 28.2074 23.8326 29.0415 24.7867 29.4378C23.5982 35.6476 21.5488 38.4375 20 38.4375ZM6.40625 30.3125C5.88383 30.3125 5.38984 30.4359 4.95102 30.654C4.17414 29.5603 3.52609 28.3998 3.01172 27.1875H13.2677C13.5923 29.6459 14.0851 31.9052 14.7289 33.8367C15.348 35.6941 16.0689 37.147 16.872 38.1751C14.1658 37.7161 11.6123 36.6589 9.34602 35.0491C9.56414 34.6102 9.6875 34.1162 9.6875 33.5938C9.6875 31.7845 8.21555 30.3125 6.40625 30.3125ZM14.375 20C14.375 18.934 14.4062 17.8703 14.4648 16.8264C15.752 16.6045 16.7845 15.6309 17.0924 14.375H25.3435C25.5287 16.1712 25.625 18.0624 25.625 20C25.625 21.0625 25.5939 22.123 25.5356 23.1641C24.2237 23.3679 23.167 24.3518 22.8548 25.625H14.6564C14.4713 23.8288 14.375 21.9377 14.375 20ZM26.0413 28.125C25.0936 28.125 24.3226 27.354 24.3226 26.4062C24.3226 25.4585 25.0936 24.6875 26.0413 24.6875C26.9891 24.6875 27.7601 25.4585 27.7601 26.4062C27.7601 27.354 26.9891 28.125 26.0413 28.125ZM25.2711 6.16328C24.652 4.30586 23.931 2.85289 23.1279 1.82477C25.8345 2.28375 28.388 3.34078 30.6544 4.95094C30.4363 5.38984 30.3129 5.88383 30.3129 6.40625C30.3129 8.21555 31.7848 9.6875 33.5941 9.6875C34.1166 9.6875 34.6105 9.56414 35.0494 9.34609C35.8263 10.4397 36.4741 11.6003 36.9884 12.8126H26.7323C26.4077 10.3541 25.9148 8.09477 25.2711 6.16328ZM35.3129 6.40625C35.3129 7.35398 34.5419 8.125 33.5941 8.125C32.6464 8.125 31.8754 7.35398 31.8754 6.40625C31.8754 5.45852 32.6464 4.6875 33.5941 4.6875C34.5419 4.6875 35.3129 5.45852 35.3129 6.40625ZM20 1.5625C21.309 1.5625 22.7253 3.46711 23.7887 6.65734C24.3848 8.44555 24.8459 10.5345 25.157 12.8125H17.0925C16.8466 11.8101 16.1394 10.9873 15.2093 10.5831C16.3968 4.35906 18.4481 1.5625 20 1.5625ZM13.9059 11.8751C14.8537 11.8751 15.6247 12.6461 15.6247 13.5938C15.6247 14.5416 14.8537 15.3126 13.9059 15.3126C12.9582 15.3126 12.1872 14.5416 12.1872 13.5938C12.1872 12.6461 12.9582 11.8751 13.9059 11.8751ZM10.7195 14.3751C10.9914 15.4839 11.828 16.373 12.9061 16.7188C12.8452 17.7983 12.8125 18.8981 12.8125 20C12.8125 21.9318 12.9061 23.822 13.0865 25.625H2.4318C1.85766 23.8282 1.5625 21.9384 1.5625 20C1.5625 18.0716 1.85977 16.1783 2.43648 14.3751H10.7195ZM4.6875 33.5938C4.6875 32.646 5.45852 31.875 6.40625 31.875C7.35398 31.875 8.125 32.646 8.125 33.5938C8.125 34.5415 7.35398 35.3125 6.40625 35.3125C5.45852 35.3125 4.6875 34.5415 4.6875 33.5938ZM23.1201 38.1722C23.4305 37.7773 23.7425 37.3028 24.0504 36.7322C25.0011 34.9699 25.7858 32.5394 26.3322 29.6739C27.7424 29.5494 28.8988 28.5295 29.2279 27.1875H36.9786C34.5634 32.8713 29.3741 37.1016 23.1201 38.1722Z" fill="#121212"/>
<path d="M6.25488 7.34863C6.46121 7.34863 6.66191 7.26582 6.80801 7.11973C6.95332 6.97441 7.03613 6.77285 7.03613 6.56738C7.03613 6.36191 6.95332 6.16113 6.80801 6.01504C6.66191 5.86973 6.46121 5.78613 6.25488 5.78613C6.04941 5.78613 5.84785 5.86973 5.70262 6.01504C5.5573 6.16113 5.47363 6.36191 5.47363 6.56738C5.47363 6.77285 5.55723 6.97441 5.70262 7.11973C5.84785 7.26582 6.04941 7.34863 6.25488 7.34863Z" fill="#121212"/>
</svg>
